<?xml version="1.0" standalone="no"?>
<!DOCTYPE svg PUBLIC "-//W3C//DTD SVG 20010904//EN"
 "http://www.w3.org/TR/2001/REC-SVG-20010904/DTD/svg10.dtd">
<svg version="1.0" xmlns="http://www.w3.org/2000/svg"
 width="680.000000pt" height="382.000000pt" viewBox="0 0 680.000000 382.000000"
 preserveAspectRatio="xMidYMid meet">

<g transform="translate(0.000000,382.000000) scale(0.100000,-0.100000)"
fill="#000000" stroke="none">
<path d="M0 1910 l0 -1910 3400 0 3400 0 0 1910 0 1910 -3400 0 -3400 0 0
-1910z m1657 1783 c23 -40 28 -44 33 -26 3 12 12 19 23 17 9 -1 17 2 17 6 0
22 60 -51 80 -97 13 -29 26 -53 29 -53 4 0 13 15 21 33 l15 32 6 -40 c10 -66
26 -96 46 -88 10 3 15 2 10 -2 -9 -10 21 -45 39 -45 7 0 15 -22 19 -59 5 -43
11 -58 20 -55 8 4 13 -4 13 -22 0 -16 5 -30 11 -32 6 -2 11 -11 11 -21 0 -9 6
-26 14 -36 8 -11 11 -26 8 -35 -5 -13 -3 -13 14 0 15 11 16 11 7 0 -7 -8 -13
-23 -13 -35 0 -12 6 -27 13 -33 6 -7 12 -18 12 -25 0 -7 8 -11 18 -9 9 2 17
-2 17 -8 0 -6 4 -9 9 -6 5 4 12 -7 16 -23 5 -22 10 -28 26 -24 13 4 19 0 19
-11 0 -10 6 -13 15 -10 10 4 13 2 10 -7 -3 -8 5 -19 20 -26 16 -7 23 -7 18 -1
-3 7 -1 8 6 4 6 -4 9 -16 6 -26 -7 -21 27 -34 44 -17 7 7 10 1 8 -19 -2 -23 2
-29 16 -27 14 1 17 -4 14 -18 -3 -10 -2 -17 2 -15 4 3 13 -3 21 -14 7 -10 19
-16 26 -13 9 3 11 -6 7 -39 -6 -38 -4 -41 9 -30 9 7 19 27 24 45 l8 32 3 -35
c7 -63 12 -68 39 -35 l25 30 -16 -37 c-19 -47 -19 -59 0 -52 10 4 15 0 15 -11
0 -14 3 -15 15 -5 14 11 19 7 16 -12 0 -5 4 -8 9 -8 6 0 10 8 10 18 0 14 2 15
10 2 10 -17 12 -16 33 25 12 21 16 25 17 12 0 -10 4 -16 9 -12 6 3 11 -16 13
-42 l3 -48 23 23 c16 16 22 18 22 7 0 -26 28 -15 49 20 7 13 11 15 10 5 -1 -8
-1 -30 0 -49 1 -28 3 -31 15 -22 12 10 13 5 9 -31 -3 -34 -2 -39 7 -25 14 21
36 22 44 1 8 -22 25 -8 19 16 -3 11 -16 31 -29 45 -13 14 -24 28 -24 30 0 7
28 -1 41 -11 8 -6 22 -14 32 -17 14 -5 17 -1 17 24 0 16 -7 41 -16 54 -9 14
-12 25 -6 25 6 0 14 -4 17 -10 3 -5 11 -10 16 -10 5 0 2 12 -8 26 -16 25 -16
26 3 23 10 -1 31 1 46 5 24 7 26 11 17 30 -10 17 -9 19 2 9 25 -24 31 -13 10
21 -28 44 -27 55 3 27 19 -18 28 -21 44 -12 11 6 23 7 28 3 5 -4 0 4 -11 17
-20 23 -20 23 0 20 14 -3 20 1 19 12 -1 12 5 15 20 11 17 -4 15 1 -13 32 -36
38 -36 46 2 22 27 -16 77 -29 77 -19 0 4 -12 20 -27 35 -31 32 -18 38 20 8 30
-24 41 -25 33 -4 -3 8 -2 13 3 10 17 -11 21 27 6 50 l-15 24 35 -17 c40 -19
51 -14 35 16 -6 12 -9 25 -6 30 8 12 -102 41 -160 42 -27 0 -67 4 -89 9 -29 7
-14 8 59 4 58 -3 122 -12 155 -24 34 -11 57 -15 60 -9 1 6 12 2 24 -8 19 -17
20 -17 14 0 -4 11 -1 17 9 17 12 0 15 6 11 21 -5 20 -5 20 14 3 19 -17 20 -17
13 1 -6 14 -4 16 6 10 10 -6 11 -2 6 21 l-8 29 27 -25 27 -25 -8 29 c-5 21 -4
27 5 22 6 -4 11 -14 11 -21 0 -8 8 -19 19 -24 28 -16 54 19 55 73 1 38 3 43
16 33 8 -7 18 -16 22 -22 4 -5 8 1 8 14 0 20 2 22 16 10 23 -19 36 6 29 61
l-6 45 20 -30 c12 -16 21 -35 21 -42 0 -6 5 -15 11 -19 8 -4 9 1 4 15 -6 19
-4 21 18 15 24 -5 26 -3 33 43 6 39 9 44 16 28 5 -11 27 -33 49 -48 39 -28 39
-28 39 -6 0 22 0 22 15 3 14 -18 14 -17 15 16 1 33 2 33 12 13 14 -28 28 -30
28 -3 0 11 5 20 10 20 6 0 10 11 10 25 0 29 7 32 27 8 13 -16 14 -15 10 12 -5
28 -4 29 10 10 8 -11 19 -19 25 -17 6 2 15 -3 20 -10 7 -10 11 -9 22 5 14 18
15 17 31 -12 9 -19 23 -31 35 -31 17 0 19 4 14 28 l-7 27 22 -20 c18 -16 26
-17 41 -7 16 10 20 8 25 -8 11 -36 50 -21 74 28 26 53 39 50 16 -3 -20 -51
-13 -54 20 -10 32 42 38 41 25 -4 -7 -25 -6 -33 6 -38 17 -6 88 23 106 44 14
17 28 0 28 -34 0 -20 4 -22 32 -16 22 4 29 3 24 -5 -4 -7 -2 -12 3 -12 6 0 16
9 23 20 20 32 26 23 17 -26 -10 -53 2 -84 31 -84 10 0 30 -5 44 -11 21 -10 30
-9 52 6 23 15 26 15 21 2 -5 -13 0 -15 24 -12 24 3 29 0 25 -11 -3 -8 -1 -14
4 -14 5 0 7 -6 4 -14 -7 -18 46 -28 110 -20 l51 7 -29 -32 c-24 -25 -26 -31
-12 -31 9 0 14 -4 11 -10 -9 -15 39 -23 79 -12 43 12 46 8 9 -12 -24 -13 -25
-15 -8 -16 17 0 18 -2 5 -11 -13 -10 -13 -10 0 -6 8 2 26 7 40 11 24 7 24 7 5
-9 -11 -9 -29 -22 -40 -30 -20 -14 -20 -14 3 -14 15 -1 21 -5 16 -13 -5 -8 2
-9 25 -5 20 4 30 3 26 -3 -3 -6 3 -10 15 -10 12 0 18 -4 15 -10 -14 -23 7 -29
43 -14 65 28 68 27 32 -5 l-35 -32 36 3 c43 4 43 -12 1 -32 l-27 -13 33 -9
c37 -10 43 -20 10 -18 -40 4 -58 0 -58 -10 0 -5 10 -10 22 -10 21 0 21 0 2
-14 -18 -14 -18 -15 9 -25 16 -6 42 -11 59 -11 l31 0 -21 -19 -22 -18 23 -11
c20 -10 20 -11 2 -11 -27 -1 -8 -17 35 -29 l35 -10 -32 -1 c-46 -1 -33 -28 20
-40 23 -5 32 -9 20 -10 -32 -2 -38 -19 -8 -27 30 -7 33 -24 5 -24 -11 0 -20
-4 -20 -10 0 -5 0 -13 -1 -17 0 -5 17 -13 38 -20 38 -11 38 -11 7 -12 -39 -1
-48 -10 -26 -28 12 -10 14 -16 5 -19 -7 -3 -13 -10 -13 -15 0 -13 55 -39 87
-40 23 -1 20 -3 -17 -14 l-45 -12 28 -12 c16 -6 37 -11 48 -11 10 0 19 -4 19
-9 0 -4 -12 -6 -27 -4 -19 3 -24 2 -15 -5 7 -5 10 -15 7 -24 -7 -17 65 -45 85
-33 9 5 11 4 6 -3 -4 -7 -27 -12 -51 -12 -24 0 -47 -4 -50 -10 -3 -5 0 -10 7
-10 10 0 10 -2 -1 -9 -11 -7 -10 -11 5 -20 17 -10 18 -12 2 -21 -11 -7 -15
-21 -14 -45 2 -19 -2 -36 -8 -38 -7 -3 -4 -12 8 -26 17 -19 17 -21 3 -21 -10
0 -17 -3 -17 -6 0 -14 25 -51 48 -72 l27 -24 -27 6 c-39 9 -35 -6 10 -38 30
-22 32 -26 12 -20 -22 6 -23 5 -11 -10 9 -11 10 -16 2 -16 -7 0 -9 -5 -6 -11
4 -6 13 -8 21 -5 8 3 11 0 7 -10 -3 -7 -11 -14 -19 -14 -8 0 -14 -5 -14 -11 0
-5 -4 -7 -10 -4 -5 3 -10 2 -10 -4 0 -5 -8 -11 -17 -14 -14 -3 -12 -6 10 -15
26 -11 40 -29 15 -19 -7 2 -24 8 -38 12 l-25 7 25 -19 c14 -11 32 -23 40 -26
8 -3 2 -6 -15 -6 l-30 -1 25 -20 c28 -22 21 -26 -13 -8 -20 10 -21 10 -8 -6 8
-9 24 -16 35 -15 35 2 46 -1 46 -12 0 -7 -4 -8 -12 -2 -7 5 -29 6 -48 3 -27
-5 -31 -8 -18 -14 10 -5 15 -12 12 -18 -10 -15 25 -45 49 -43 12 1 14 0 5 -2
-10 -2 -18 -9 -18 -15 0 -5 -6 -8 -12 -5 -16 5 -48 -10 -48 -23 0 -5 21 -25
46 -45 56 -42 49 -44 -35 -9 -35 14 -65 23 -67 21 -7 -6 27 -47 39 -47 7 0 32
-18 57 -41 25 -22 35 -35 23 -29 -43 20 -26 -18 22 -52 52 -37 53 -44 2 -23
-46 19 -50 19 -42 -4 5 -16 1 -18 -22 -13 l-28 5 24 -27 c14 -14 21 -26 17
-26 -5 0 -2 -8 5 -17 12 -15 11 -14 -13 1 -51 33 -51 10 0 -44 48 -51 63 -82
25 -48 -21 18 -63 30 -63 18 0 -5 4 -11 9 -14 5 -4 8 -14 7 -24 -2 -9 6 -23
17 -31 15 -11 16 -15 6 -22 -10 -6 -11 -9 -1 -9 6 0 12 -5 12 -11 0 -8 -4 -8
-15 1 -8 6 -13 16 -12 22 1 5 -8 17 -20 25 -33 23 -30 -3 5 -40 l27 -30 -25
13 c-14 7 -49 35 -78 62 -30 26 -58 48 -63 48 -6 0 -8 4 -5 9 3 4 -12 16 -34
26 -46 21 -52 34 -12 29 15 -2 19 -1 10 2 -10 3 -18 12 -18 19 0 8 -9 17 -20
20 -11 4 -18 11 -15 16 4 5 -8 9 -25 9 -41 0 -35 -21 11 -38 29 -11 30 -12 7
-9 -16 2 -28 -1 -28 -6 0 -7 -4 -7 -12 1 -7 7 -16 12 -22 12 -5 0 -1 -6 9 -14
11 -8 23 -12 27 -10 4 3 12 -5 18 -16 6 -11 43 -36 83 -54 54 -25 83 -46 117
-87 26 -31 37 -50 26 -46 -39 15 -66 19 -66 9 0 -6 5 -14 10 -17 6 -4 8 -10 5
-15 -6 -10 70 -56 108 -65 15 -4 27 -11 27 -15 0 -10 -35 -1 -69 16 -14 7 -28
11 -33 8 -4 -3 -11 2 -14 11 -4 9 -28 31 -54 48 -26 18 -49 37 -51 42 -2 6 -9
9 -15 7 -7 -1 -15 2 -19 8 -4 6 1 7 11 3 15 -5 14 -1 -5 26 -30 41 -62 57 -87
42 -17 -9 -16 -10 9 -11 18 0 26 -4 21 -11 -3 -6 -15 -8 -26 -6 -19 5 -19 5
-3 -13 10 -11 27 -22 38 -26 14 -4 16 -8 7 -14 -8 -5 5 -17 38 -36 46 -26 67
-52 63 -78 -1 -5 3 -12 10 -17 8 -5 5 -11 -10 -19 -19 -9 -26 -9 -42 6 -10 9
-16 21 -12 26 3 6 -1 15 -8 20 -10 7 -7 7 9 3 12 -3 22 -3 22 2 -1 10 -115 61
-158 69 -34 7 -54 24 -28 24 27 0 18 19 -11 25 -16 3 -41 10 -58 16 -16 6 -41
13 -54 16 -23 6 -23 5 -5 -16 10 -11 22 -21 27 -21 17 0 67 -42 62 -51 -4 -5
-2 -9 4 -9 6 0 21 -9 33 -21 13 -11 37 -32 53 -46 17 -14 22 -20 12 -13 -26
19 -34 3 -10 -21 14 -15 27 -19 42 -14 12 3 19 11 16 16 -3 5 1 6 9 3 20 -8
21 10 1 26 -8 7 -12 17 -8 23 3 5 12 -2 20 -17 8 -14 11 -31 8 -36 -3 -6 0
-10 7 -10 10 0 10 -2 0 -9 -11 -6 -8 -14 14 -34 33 -31 25 -50 -9 -21 -12 10
-33 25 -47 33 l-24 14 17 -26 c23 -35 21 -44 -3 -22 -21 19 -26 12 -20 -25 2
-13 -1 -12 -16 1 -19 17 -104 49 -127 49 -7 0 0 -10 16 -21 15 -11 27 -27 27
-34 0 -7 7 -16 16 -19 9 -4 14 -9 11 -12 -3 -3 -16 0 -29 7 -31 17 -144 20
-121 4 17 -12 27 -45 14 -45 -3 0 -16 7 -29 15 -20 14 -21 14 -16 0 5 -12 2
-14 -12 -8 -17 6 -18 5 -4 -12 11 -14 12 -17 1 -11 -7 5 -34 10 -60 12 -29 2
-50 9 -56 19 -5 9 -16 24 -23 33 -12 15 -13 13 -8 -15 3 -19 1 -35 -6 -39 -7
-5 -8 -2 -3 7 6 11 5 11 -5 2 -9 -8 -19 -9 -32 -2 -14 7 -20 6 -24 -5 -3 -8
-23 -17 -45 -21 -21 -4 -39 -12 -39 -19 0 -11 -87 -56 -108 -56 -21 0 -61 -27
-66 -43 -3 -14 -10 -17 -27 -12 -14 5 -19 4 -15 -4 13 -21 -10 -11 -34 14 -13
14 -27 25 -32 25 -20 0 -97 43 -92 51 3 5 10 6 16 3 10 -7 58 41 58 59 0 5 11
6 24 3 31 -8 40 5 21 30 -18 23 -19 58 -3 84 7 10 9 23 5 27 -5 4 -12 1 -17
-7 -7 -11 -10 -8 -10 13 0 15 4 27 8 27 4 0 14 16 21 36 11 30 11 44 0 76 -12
36 -49 79 -81 91 -10 4 -10 8 2 16 13 9 13 14 -2 38 -28 47 -74 68 -147 66
-68 -2 -102 -19 -168 -82 -18 -18 -36 -31 -40 -31 -5 0 -9 -11 -11 -25 -2 -15
-14 -42 -27 -61 -13 -20 -27 -43 -30 -52 -3 -9 -21 -27 -40 -40 -45 -28 -75
-77 -75 -119 0 -32 2 -33 39 -33 43 0 56 -11 65 -56 8 -35 24 -53 71 -77 17
-9 24 -16 17 -17 -7 0 -17 -12 -22 -26 -8 -20 -13 -24 -23 -15 -10 8 -24 5
-52 -10 -29 -16 -43 -19 -55 -11 -10 6 -23 6 -33 1 -11 -7 -19 -4 -26 8 -10
17 -12 17 -26 -1 -13 -17 -15 -17 -15 -4 0 25 -14 29 -50 17 -26 -10 -39 -9
-66 4 -30 15 -34 15 -34 1 0 -8 4 -12 10 -9 8 5 8 -46 -2 -84 -2 -7 7 -15 20
-17 16 -3 22 1 22 15 0 21 16 30 43 23 21 -5 22 -22 3 -47 -12 -16 -11 -25 5
-62 10 -24 15 -43 12 -43 -12 0 -43 33 -43 47 0 7 -4 13 -9 13 -5 0 -12 10
-16 23 -6 20 -7 19 -16 -12 -13 -43 -5 -68 16 -51 13 11 15 6 15 -34 0 -25 -4
-46 -10 -46 -5 0 -10 11 -10 25 0 14 -5 25 -11 25 -6 0 -8 -9 -5 -20 3 -11 9
-29 12 -40 8 -29 -5 -25 -16 5 -5 14 -16 25 -25 25 -8 0 -15 5 -15 10 0 6 -7
10 -15 10 -9 0 -12 -6 -9 -15 5 -11 2 -13 -12 -8 -12 4 -15 3 -10 -5 4 -7 1
-12 -8 -12 -9 0 -16 -4 -16 -10 0 -5 -4 -10 -10 -10 -14 0 -12 16 4 33 8 7 14
30 13 50 -1 42 -11 32 -27 -25 -6 -21 -15 -38 -20 -38 -5 0 -6 8 -3 17 6 16 5
16 -10 4 -15 -12 -17 -10 -12 20 l5 34 -10 -32 c-6 -18 -15 -35 -20 -38 -15
-9 -12 -41 4 -54 8 -7 12 -21 9 -32 -4 -12 0 -25 8 -30 11 -7 9 -9 -7 -9 -12
0 -24 7 -28 15 -4 11 -13 14 -31 9 -21 -5 -24 -3 -19 11 5 11 15 15 29 13 18
-4 21 -1 17 19 -3 18 -7 21 -17 13 -9 -7 -28 -8 -52 -4 -21 5 -41 8 -45 9 -3
0 -10 4 -15 9 -4 4 11 5 35 1 34 -5 42 -4 42 9 0 18 -40 42 -49 30 -3 -5 -16
-10 -28 -11 -17 -2 -21 1 -16 15 3 9 10 22 15 28 5 7 -4 21 -26 38 -41 31 -56
34 -31 6 10 -11 15 -23 12 -26 -4 -4 -16 4 -27 17 -19 21 -20 22 -11 3 15 -30
-6 -71 -36 -71 -24 0 -31 13 -12 19 7 2 5 11 -7 23 -13 13 -15 20 -6 23 6 2
12 8 12 13 0 6 -3 8 -7 6 -5 -3 -14 1 -20 9 -9 9 -10 15 -2 20 16 9 33 -12 34
-43 0 -14 6 -28 13 -31 17 -5 16 55 -2 65 -8 5 -19 19 -25 33 -7 18 -10 20
-10 8 -1 -28 -20 -21 -27 10 -11 53 -17 58 -24 22 -4 -19 -8 -28 -9 -18 0 9
-16 34 -33 57 -18 22 -41 50 -51 63 -11 15 -10 10 4 -14 19 -34 19 -38 4 -38
-15 0 -16 -2 -4 -17 8 -9 0 -6 -19 7 -18 13 -30 30 -28 37 3 7 -1 14 -9 14 -8
1 -24 2 -34 3 -11 0 -23 4 -27 9 -4 4 -14 7 -22 7 -9 0 -24 8 -35 17 -20 17
-20 17 -14 0 4 -10 7 -25 7 -33 0 -7 17 -22 38 -33 21 -11 44 -27 52 -36 12
-15 10 -16 -16 -13 -16 2 -35 9 -42 16 -15 14 -42 16 -42 3 0 -18 27 -29 85
-34 33 -3 69 -8 79 -13 15 -6 17 -4 11 7 -5 8 12 -8 36 -35 24 -28 44 -55 44
-60 0 -6 4 -17 9 -24 7 -11 4 -12 -12 -3 -11 6 -24 20 -27 31 -3 11 -11 20
-16 20 -5 0 -9 9 -9 20 0 11 -5 20 -11 20 -5 0 -7 -4 -4 -10 9 -14 3 -13 -55
10 -28 11 -63 20 -77 20 -26 0 -26 0 -7 -16 15 -13 13 -13 -10 1 -34 20 -49 7
-43 -38 l4 -27 -22 20 c-20 19 -43 102 -44 160 0 26 -37 64 -52 54 -5 -3 -16
2 -25 10 -17 17 -34 21 -34 8 0 -5 12 -19 27 -32 19 -17 23 -25 14 -28 -8 -3
-21 4 -30 15 -20 26 -61 52 -86 56 -11 1 -25 6 -32 10 -6 4 -13 2 -15 -5 -4
-12 33 -38 55 -38 14 0 57 -41 57 -54 0 -5 12 -23 27 -38 15 -15 22 -28 15
-28 -6 0 -14 5 -17 10 -3 6 -18 10 -33 10 -15 0 -38 8 -51 17 -14 9 -22 12
-18 6 3 -5 25 -23 49 -39 24 -16 49 -37 56 -46 7 -10 19 -18 27 -18 8 0 17 -4
20 -10 4 -6 -1 -7 -12 -3 -16 6 -16 5 -4 -10 23 -28 8 -28 -33 0 -22 14 -35
20 -30 12 4 -7 -15 6 -44 30 -29 24 -52 48 -52 53 0 5 -4 7 -9 4 -5 -3 -23 16
-40 42 -35 55 -81 102 -81 83 0 -9 -9 -11 -30 -6 -32 7 -39 -5 -15 -25 20 -16
19 -34 -1 -26 -8 3 -12 2 -9 -4 3 -5 21 -12 40 -16 30 -5 32 -8 20 -20 -14
-14 -11 -37 7 -61 22 -28 -19 -45 -42 -18 -7 8 -17 15 -23 15 -6 0 7 -16 29
-35 21 -20 29 -31 17 -26 -12 6 -37 26 -57 44 -20 19 -38 32 -40 29 -3 -2 -11
7 -17 22 -8 17 -15 22 -19 15 -8 -12 -40 43 -40 67 0 18 -49 54 -64 48 -17 -7
-46 39 -46 73 0 24 -1 25 -13 9 -12 -16 -14 -16 -26 -2 -8 9 -20 16 -27 16 -8
0 -18 10 -23 23 -5 12 -29 44 -53 70 -45 47 -73 61 -61 31 5 -13 -2 -12 -37 6
-78 40 -61 12 53 -85 40 -34 41 -46 2 -21 -42 28 -28 2 26 -45 83 -72 89 -79
89 -88 0 -5 -9 -7 -19 -4 -16 4 -20 0 -18 -17 1 -17 15 -28 55 -46 30 -13 58
-22 62 -19 4 3 11 -2 14 -11 11 -29 6 -35 -16 -20 -35 24 -49 21 -38 -9 9 -25
2 -32 -25 -25 -5 1 -26 4 -45 7 -19 2 -37 7 -40 11 -3 4 -14 14 -24 22 -18 13
-19 13 -12 0 5 -8 -5 1 -22 20 -17 19 -31 38 -32 43 0 15 -4 22 -17 35 -7 8
-11 17 -8 22 3 5 1 11 -5 15 -14 9 -12 24 3 21 6 -1 23 -9 37 -19 13 -9 32
-17 40 -17 9 0 21 -5 28 -12 6 -6 14 -9 17 -6 3 3 -21 29 -54 58 -34 29 -58
58 -54 64 3 6 3 8 -2 4 -4 -4 -20 1 -35 12 -47 33 -59 26 -40 -24 10 -28 3
-59 -11 -50 -17 10 -9 -8 16 -38 14 -16 25 -35 25 -41 0 -7 23 -36 50 -64 31
-33 45 -53 35 -53 -21 0 -19 -27 5 -47 20 -18 29 -50 10 -38 -12 8 -13 3 0
-29 5 -14 6 -26 2 -26 -4 0 -25 38 -46 86 -22 47 -45 88 -50 92 -6 4 -20 24
-31 44 -10 20 -23 35 -27 32 -4 -3 -8 1 -8 8 -1 7 -7 2 -15 -12 -13 -24 -14
-24 -17 25 -3 36 -5 27 -6 -32 -2 -84 -8 -97 -33 -66 -10 11 -10 14 -1 9 8 -5
12 0 12 14 0 19 -6 29 -37 65 -7 7 -13 18 -13 24 0 16 50 85 50 70 0 -9 5 -6
12 6 6 11 15 23 20 26 5 3 6 18 3 32 -7 25 -8 26 -31 10 -14 -9 -22 -18 -19
-21 7 -7 -25 -42 -39 -42 -6 0 -4 5 4 10 12 8 12 12 2 18 -9 6 -10 16 -4 33 5
13 12 23 16 22 3 -2 13 -3 22 -3 13 0 14 3 5 14 -6 7 -9 22 -5 32 5 16 4 16
-5 4 -9 -13 -11 -12 -11 3 0 12 -4 16 -12 10 -13 -8 -18 -9 -39 -12 -5 0 -7
-6 -3 -13 5 -7 3 -8 -5 -3 -7 4 -11 16 -8 26 3 11 1 16 -5 13 -6 -4 -8 1 -4
14 6 17 3 19 -14 15 -16 -4 -20 -14 -20 -52 -1 -36 -3 -42 -11 -28 -5 9 -16
17 -24 17 -7 0 -16 14 -20 30 -4 17 -11 30 -16 30 -5 0 -9 5 -9 11 0 5 6 7 13
3 10 -7 1 10 -22 36 -2 3 -1 -14 3 -38 4 -29 3 -41 -4 -37 -14 9 -12 64 5 121
17 56 19 88 5 79 -5 -3 -14 13 -20 35 -12 45 -30 45 -30 -1 0 -20 -4 -28 -12
-23 -8 5 -9 0 -4 -17 12 -36 12 -64 1 -67 -5 -1 -11 8 -13 22 -2 13 -10 30
-19 38 -14 12 -15 9 -9 -26 6 -34 5 -38 -7 -28 -24 20 -27 1 -6 -40 33 -64 16
-65 -24 -2 -20 33 -35 66 -32 74 4 8 3 11 -1 7 -4 -4 -13 -2 -21 4 -10 9 -13
8 -10 -7 2 -11 7 -27 12 -37 4 -10 5 -21 1 -24 -3 -4 3 -17 15 -29 12 -13 16
-24 11 -28 -6 -3 -20 7 -32 24 -12 16 -28 30 -35 30 -8 0 -19 8 -24 19 -6 10
-20 21 -31 24 -23 6 -28 -11 -5 -19 8 -4 15 -12 15 -20 0 -17 -12 -18 -28 -2
-7 7 -12 8 -12 4 0 -5 -8 -2 -17 5 -14 12 -16 12 -9 -1 4 -8 -1 -5 -10 8 -9
12 -21 22 -26 22 -6 0 -5 -7 2 -15 10 -12 10 -15 -4 -15 -9 0 -16 6 -16 14 0
8 -9 24 -21 37 l-20 24 11 -23 c11 -22 10 -23 -9 -12 -12 6 -21 18 -21 26 0 8
-4 13 -9 9 -5 -3 -12 -1 -16 5 -4 6 -10 8 -15 5 -11 -7 -21 21 -14 40 4 9 0
15 -9 15 -11 0 -17 -12 -20 -37 l-4 -38 -1 43 c-1 30 -6 42 -14 39 -7 -2 -12
-12 -12 -21 1 -9 -2 -16 -7 -16 -5 0 -7 -10 -5 -22 3 -13 5 -26 5 -29 1 -3 26
-16 56 -28 30 -13 53 -27 50 -31 -3 -5 14 -14 37 -20 24 -7 50 -18 58 -25 8
-7 32 -16 53 -20 20 -4 37 -12 37 -19 0 -6 36 -28 80 -50 43 -21 79 -41 78
-45 0 -3 0 -13 1 -21 1 -12 3 -13 10 -1 7 10 13 11 27 2 18 -10 18 -10 -1 -11
-14 0 -7 -7 20 -19 22 -11 36 -20 32 -20 -5 -1 -17 4 -28 9 -10 6 -19 7 -19 2
0 -5 18 -15 40 -22 23 -8 53 -24 68 -38 l27 -24 -25 7 c-14 4 -38 14 -53 22
-15 7 -31 12 -35 9 -5 -3 -26 5 -48 18 l-39 22 0 -42 c0 -59 34 -84 133 -98
48 -7 77 -16 80 -25 3 -8 0 -11 -7 -7 -6 4 -11 3 -11 -2 0 -5 -18 -8 -40 -6
-56 5 -43 -10 41 -48 48 -21 69 -36 69 -49 0 -22 45 -34 115 -30 37 1 46 -1
35 -8 -8 -6 -28 -8 -45 -5 -24 4 -27 3 -15 -6 12 -9 10 -10 -9 -5 -13 4 -29 8
-35 9 -6 1 -17 5 -25 10 -8 5 -16 4 -20 -3 -5 -7 -14 -6 -29 5 -12 8 -20 19
-17 24 3 5 0 12 -6 16 -8 4 -9 3 -5 -4 14 -24 -16 -11 -46 18 -16 16 -33 30
-38 30 -4 0 -13 7 -20 15 -7 8 -23 15 -36 15 -18 0 -22 -4 -19 -22 3 -12 11
-26 20 -30 8 -5 15 -13 15 -18 0 -16 -32 -11 -52 7 -10 9 -21 13 -25 9 -4 -4
3 -16 17 -26 29 -22 37 -80 10 -73 -9 2 -17 16 -18 31 -1 15 -8 32 -15 37 -8
6 -16 42 -20 90 -4 44 -11 94 -17 110 -44 131 -54 156 -69 169 -16 15 -172 78
-178 72 -5 -4 111 -60 120 -58 5 1 6 -2 2 -8 -3 -5 -1 -10 6 -10 7 0 10 -3 7
-6 -8 -7 -133 50 -142 64 -3 6 -19 13 -36 17 -16 3 -47 25 -70 47 -22 23 -43
38 -47 35 -3 -4 1 -26 10 -49 l17 -43 -20 25 c-11 14 -20 32 -20 42 0 16 -54
68 -71 68 -12 0 -12 -27 1 -35 6 -3 10 -12 10 -18 -1 -7 -12 7 -26 31 -14 23
-29 42 -33 42 -3 0 -16 -8 -28 -18 -27 -22 -22 -73 7 -65 19 5 36 -27 31 -59
-2 -19 11 -29 42 -32 62 -8 108 -19 113 -28 7 -11 -30 -7 -101 11 -25 6 -43 7
-49 1 -7 -7 -5 -10 3 -10 7 0 9 -4 6 -10 -3 -5 0 -10 8 -10 8 0 22 -10 33 -21
19 -22 19 -22 -4 -10 -12 6 -22 10 -22 7 0 -3 -13 -1 -29 4 -34 9 -44 -3 -29
-34 6 -10 6 -21 2 -25 -20 -14 -8 -53 19 -68 15 -7 25 -18 22 -22 -2 -5 26
-40 63 -78 56 -57 77 -72 122 -85 30 -8 54 -21 53 -27 -2 -6 7 -11 20 -11 16
0 18 3 9 9 -11 7 -10 9 3 14 9 4 13 3 10 -3 -10 -16 37 -32 79 -27 23 2 52 1
66 -3 24 -8 24 -8 3 -9 -25 -1 -31 -16 -10 -24 6 -3 2 -6 -10 -6 -12 -1 -46 8
-74 19 -31 13 -72 20 -103 20 -28 -1 -66 2 -83 5 -21 5 -33 3 -33 -3 0 -16 21
-26 29 -15 3 6 14 2 26 -9 20 -20 20 -20 -14 -15 -20 4 -44 17 -60 35 -14 17
-35 35 -46 41 -14 7 -16 10 -5 11 27 0 20 36 -10 53 -24 15 -28 15 -26 2 1 -8
11 -22 22 -30 10 -8 15 -15 11 -15 -17 0 -68 46 -83 75 -9 16 -18 45 -20 64
-3 18 -12 47 -20 63 -9 17 -13 39 -11 50 6 22 -16 82 -26 71 -9 -9 -9 6 2 43
5 17 5 37 1 44 -5 7 -2 32 5 56 7 24 11 45 8 48 -8 7 -53 -16 -54 -28 -7 -110
-7 -140 2 -163 21 -52 28 -103 13 -103 -7 0 -15 6 -18 13 -3 6 -3 1 0 -13 9
-40 73 -162 102 -195 15 -16 33 -40 40 -53 12 -22 12 -23 -8 -12 -11 6 -20 15
-20 20 0 6 -7 10 -16 10 -12 0 -15 -5 -9 -23 11 -34 11 -72 0 -75 -5 -1 -13
19 -17 45 -10 69 -38 139 -49 122 -6 -10 -9 -7 -9 11 -1 24 -1 24 -15 6 -8
-11 -18 -34 -21 -52 -3 -18 -12 -38 -20 -45 -19 -16 -18 -9 12 65 14 36 24 75
22 88 -4 30 -32 30 -36 1 -4 -26 -22 -32 -22 -7 0 9 -5 12 -12 8 -7 -4 -8 -3
-4 5 4 6 11 9 16 6 10 -6 24 60 21 105 -2 19 -9 39 -17 43 -11 7 -11 13 0 45
20 52 41 162 38 194 -1 19 4 28 18 33 11 3 20 14 20 23 0 9 7 26 15 36 27 36
18 49 -17 25 -18 -12 -34 -23 -34 -23 -1 -1 -5 -12 -9 -25 -5 -16 -4 -21 4
-17 6 4 4 -6 -4 -21 -7 -15 -21 -49 -30 -75 -9 -27 -21 -48 -26 -48 -5 0 -9
-11 -9 -24 0 -14 -4 -28 -10 -31 -6 -4 -10 8 -10 30 0 24 -4 34 -11 29 -6 -3
-3 5 6 20 10 14 13 26 9 26 -5 0 -1 5 9 11 19 11 57 80 57 104 0 12 -4 14 -19
5 -13 -6 -22 -26 -27 -55 -3 -25 -10 -43 -14 -40 -4 2 -17 -14 -29 -35 -42
-76 -38 -35 5 53 30 61 32 90 4 55 -30 -38 -41 -76 -44 -144 -2 -33 -7 -68
-12 -77 -9 -16 -13 -16 -57 -1 -44 15 -69 32 -28 19 22 -7 81 -15 81 -11 0 2
-5 17 -11 35 -10 29 -29 43 -29 22 0 -6 -12 -6 -31 1 -25 8 -33 8 -40 -3 -13
-21 -11 -1 3 24 10 20 10 21 -5 8 -27 -22 -20 0 10 31 15 15 22 28 15 28 -6 0
-14 -4 -17 -10 -3 -5 -11 -10 -17 -10 -5 0 0 9 13 19 19 15 27 17 39 8 8 -6
12 -7 8 -3 -4 5 0 15 10 23 15 13 15 14 0 10 -22 -8 -30 3 -16 22 10 13 10 14
-2 4 -21 -19 -51 -16 -48 4 2 10 -4 19 -13 21 -11 2 -18 -10 -26 -45 l-10 -48
-2 67 c0 37 4 70 9 73 6 3 10 18 10 33 0 21 -2 24 -10 12 -7 -10 -9 19 -9 90
1 58 3 97 6 88 2 -10 9 -18 15 -18 6 0 3 11 -6 25 -14 21 -16 69 -16 370 0
190 3 344 7 343 5 0 15 1 23 5 30 11 285 25 308 16 13 -5 33 -9 44 -9 20 0 20
1 2 27 l-17 28 26 -18 c33 -21 55 -23 38 -3 -16 19 9 28 27 10 13 -13 77 -34
118 -39 11 -1 26 -5 32 -9 8 -5 12 1 12 18 0 14 5 28 10 31 6 3 10 -2 10 -12
0 -11 4 -23 9 -28 14 -14 143 -6 134 8 -4 7 0 8 13 3 23 -9 167 -25 174 -19 3
2 -5 12 -16 21 -24 19 -42 57 -21 46 6 -4 22 -16 34 -27 42 -38 246 -77 271
-52 7 6 -21 34 -84 83 -33 26 -17 20 39 -15 21 -13 49 -28 63 -33 23 -9 24 -9
9 13 -8 13 -35 34 -60 46 -46 23 -60 37 -27 27 16 -6 19 -1 18 34 -1 35 -8 47
-41 75 -49 42 -35 45 19 5 46 -35 61 -38 46 -11 -13 26 -13 34 3 25 8 -5 8 -2
-2 9 -16 20 -25 23 -15 5 4 -7 4 -10 0 -6 -4 3 -8 10 -8 15 1 4 -7 16 -16 26
-14 16 -14 17 0 12 11 -4 18 0 23 14 6 21 -11 56 -49 99 -11 12 -15 22 -9 22
6 0 16 -7 23 -15 15 -18 40 -20 40 -3 0 7 -12 25 -27 42 l-28 30 29 -22 c32
-25 47 -22 25 4 -13 16 -11 17 14 12 15 -3 27 -4 27 -3 0 1 -20 15 -45 30 -53
34 -54 45 -1 14 20 -11 36 -19 37 -17 12 57 2 71 -70 93 -34 10 -61 22 -61 26
0 4 14 4 31 -1 43 -13 56 -2 30 24 -30 31 -74 86 -67 86 3 0 24 -13 48 -28 50
-34 78 -45 78 -32 0 5 -8 15 -17 22 -10 7 -22 21 -28 30 -5 9 -21 31 -34 49
l-24 34 36 -34 c21 -19 49 -36 65 -38 26 -3 26 -3 8 12 -11 8 -16 15 -11 15 5
0 -4 13 -19 29 -23 24 -25 29 -11 35 9 3 22 3 27 -1 7 -4 8 -1 3 7 -4 7 -2 15
4 20 7 4 -1 7 -18 8 -17 0 -31 -3 -31 -8 0 -4 -9 -6 -21 -3 -12 3 -24 0 -29
-6 -5 -10 -9 -9 -13 3 -4 9 -1 16 6 16 7 0 18 5 25 12 10 10 7 15 -10 25 -13
7 -17 12 -10 13 7 0 22 -5 34 -11 23 -13 37 -4 20 13 -7 7 -12 17 -12 23 0 6
3 6 8 -1 5 -8 15 -8 32 -2 23 9 24 10 7 20 -10 5 -30 7 -45 4 -26 -6 -26 -6
-8 9 23 17 42 19 51 5 3 -5 16 -10 28 -10 14 0 2 9 -33 26 l-55 26 33 17 c18
9 29 21 25 26 -4 4 0 5 9 2 27 -10 31 10 6 27 -15 11 -18 16 -8 16 9 1 4 7
-10 15 -19 11 -21 14 -8 15 26 0 42 37 22 48 -13 7 -10 10 15 15 29 6 35 17
30 53 0 4 5 10 13 15 7 5 13 13 13 19 0 6 6 14 13 19 8 5 12 12 10 17 -1 5 8
10 20 12 19 3 23 8 18 26 -5 20 -2 23 20 20 15 -1 28 4 31 12 3 7 22 19 44 25
42 13 42 22 -5 50 -17 10 -25 19 -18 19 22 0 69 -28 76 -46 5 -13 11 -11 34
17 21 27 34 34 60 33 20 -1 31 3 29 10 -3 6 -10 10 -16 9 -6 -2 -11 2 -11 8 0
6 7 9 15 5 16 -6 22 19 6 28 -8 5 -13 56 -5 56 2 0 16 -21 31 -47z m-877 -793
c13 -9 13 -11 0 -20 -8 -5 -31 -10 -50 -10 -19 0 -60 -7 -90 -14 -60 -14 -80
-12 -80 9 0 20 16 27 79 35 83 11 124 11 141 0z m104 -6 c25 -9 19 -24 -9 -24
-16 0 -25 6 -25 15 0 16 9 19 34 9z m150 -30 c22 -9 10 -23 -14 -17 -11 3 -17
9 -14 14 6 11 8 11 28 3z m-300 -40 c20 -20 20 -33 0 -41 -20 -8 -49 21 -41
41 8 20 21 20 41 0z m163 -20 c32 -4 61 -15 74 -27 21 -19 21 -21 3 -34 -21
-16 -137 -18 -165 -3 -18 10 -26 50 -12 63 8 9 33 9 100 1z m-602 -196 c33 -5
77 -13 98 -15 21 -3 41 -11 43 -18 3 -7 27 -13 58 -14 41 -1 56 3 71 19 16 17
30 20 117 20 77 0 98 -3 98 -14 0 -15 -21 -26 -51 -26 -11 0 -31 -7 -44 -16
-20 -13 -30 -14 -53 -5 -43 18 -183 10 -207 -12 -28 -25 -90 -20 -90 8 0 18
-7 20 -76 20 -53 0 -81 5 -94 15 -12 10 -40 15 -84 15 -60 0 -66 2 -69 22 -3
21 -1 21 110 17 62 -3 140 -10 173 -16z m723 -4 c34 -5 52 -11 52 -20 0 -25
-139 -12 -148 14 -4 14 17 15 96 6z m-180 -71 c2 -9 -7 -13 -27 -13 -32 0 -50
15 -29 24 21 8 51 2 56 -11z m-213 -13 c-3 -5 -18 -10 -33 -9 l-27 1 25 8 c35
11 42 11 35 0z m-386 -91 c61 -19 84 -30 79 -35 -3 -2 -25 0 -49 7 -24 6 -57
11 -73 12 -35 2 -49 27 -15 27 12 0 39 -5 58 -11z m-175 -35 c25 -9 19 -24 -9
-24 -24 0 -32 10 -18 23 8 8 8 8 27 1z m-35 -62 c0 4 12 3 25 -1 16 -7 32 -5
51 5 25 13 30 13 44 0 13 -14 12 -16 -5 -22 -10 -3 -28 -10 -39 -14 -11 -5
-37 -16 -57 -24 l-38 -15 1 67 c1 56 3 61 9 32 4 -19 8 -32 9 -28z m374 41
l32 -18 -34 -3 c-24 -3 -39 2 -52 17 -20 21 -20 21 1 21 12 0 35 -8 53 -17z
m-128 -23 c4 -6 -5 -10 -19 -10 -14 0 -26 5 -26 10 0 6 9 10 19 10 11 0 23 -4
26 -10z m190 -18 c-3 -3 -11 0 -18 7 -9 10 -8 11 6 5 10 -3 15 -9 12 -12z m71
-11 c-5 -8 -56 -3 -56 5 0 2 14 4 31 4 16 0 28 -4 25 -9z m643 -27 c13 -12 -8
-10 -29 2 l-25 15 25 -7 c14 -3 27 -8 29 -10z m-752 -6 c19 -9 20 -13 7 -25
-18 -19 -96 -8 -111 15 -9 15 -4 17 36 19 25 2 56 -2 68 -9z m-197 -8 c0 -5
-2 -10 -4 -10 -3 0 -8 5 -11 10 -3 6 -1 10 4 10 6 0 11 -4 11 -10z m400 0 c19
-12 10 -20 -33 -29 -36 -9 -111 14 -101 30 7 12 115 11 134 -1z m5180 -520 c0
-5 -13 -10 -30 -10 -16 0 -30 5 -30 10 0 6 14 10 30 10 17 0 30 -4 30 -10z
m-373 -166 c-3 -3 -12 -4 -19 -1 -8 3 -5 6 6 6 11 1 17 -2 13 -5z m1283 -294
c8 -5 11 -10 5 -10 -5 0 -17 5 -25 10 -8 5 -10 10 -5 10 6 0 17 -5 25 -10z
m-1210 -10 c0 -5 -13 -10 -30 -10 -16 0 -30 5 -30 10 0 6 14 10 30 10 17 0 30
-4 30 -10z m-100 -80 c0 -5 -10 -10 -22 -10 -19 0 -20 2 -8 10 19 13 30 13 30
0z m-1490 -54 c0 -3 -4 -8 -10 -11 -5 -3 -10 -1 -10 4 0 6 5 11 10 11 6 0 10
-2 10 -4z m145 -66 c3 -5 1 -10 -4 -10 -6 0 -11 5 -11 10 0 6 2 10 4 10 3 0 8
-4 11 -10z m-3990 -20 c-16 -11 -34 -20 -40 -20 -12 0 46 38 60 39 6 1 -3 -8
-20 -19z m3845 -40 c-12 -17 -19 -37 -16 -45 3 -8 1 -15 -4 -15 -5 0 -29 -14
-54 -30 -34 -23 -43 -35 -39 -50 6 -23 14 -25 31 -8 8 8 12 8 12 1 0 -21 -34
-25 -50 -6 -8 10 -25 17 -37 15 -25 -4 -31 20 -13 48 7 12 12 12 22 2 17 -17
31 -15 24 3 -3 10 2 19 17 26 60 27 107 69 107 96 0 13 3 14 11 6 9 -9 6 -20
-11 -43z m1660 40 c0 -15 -37 -27 -106 -35 -32 -3 -69 -8 -82 -11 -23 -5 -23
-5 -5 20 16 22 27 25 93 28 41 2 81 5 88 6 6 1 12 -3 12 -8z m-197 -7 c-7 -2
-19 -2 -25 0 -7 3 -2 5 12 5 14 0 19 -2 13 -5z m276 -17 c-2 -2 -18 -7 -34
-10 l-30 -6 30 14 c26 12 46 14 34 2z m-461 -78 c19 -19 14 -29 -8 -16 -20 13
-27 28 -12 28 4 0 13 -5 20 -12z m-4948 -86 c0 -24 -26 10 -34 43 l-7 30 21
-30 c11 -16 20 -36 20 -43z m135 48 c3 -5 1 -10 -4 -10 -6 0 -11 5 -11 10 0 6
2 10 4 10 3 0 8 -4 11 -10z m-355 -10 c0 -5 11 -12 25 -16 14 -3 22 -10 19
-15 -6 -11 35 -48 54 -49 6 0 12 -5 12 -11 0 -5 -4 -7 -10 -4 -5 3 -10 4 -10
2 0 -4 67 -47 73 -47 2 0 3 9 4 20 1 11 -3 20 -9 20 -5 0 -8 7 -4 15 3 8 1 15
-5 15 -6 0 -7 5 -3 12 10 15 33 -36 34 -73 0 -26 -2 -27 -37 -19 l-36 9 28
-27 c18 -18 29 -23 32 -14 9 23 23 1 23 -36 0 -25 8 -45 28 -66 22 -25 23 -27
3 -11 l-24 20 5 -27 c3 -15 0 -29 -6 -31 -7 -2 -5 -18 7 -48 16 -43 16 -44 -2
-20 -18 23 -19 23 -23 5 -4 -13 -6 -9 -7 11 -1 17 -2 37 -2 45 -1 8 2 39 5 68
6 45 4 53 -11 59 -10 4 -38 23 -62 42 -25 20 -41 30 -37 24 4 -8 2 -13 -5 -13
-19 0 31 -49 71 -71 28 -14 31 -18 15 -20 -11 -1 -25 -1 -31 0 -6 1 -10 -7
-10 -16 1 -10 -3 -19 -9 -21 -5 -1 -10 6 -11 16 -1 19 -22 62 -30 62 -2 0 -1
-8 4 -17 5 -10 12 -40 15 -68 l5 -50 -19 35 c-10 19 -18 44 -19 55 0 15 -2 17
-9 7 -6 -9 -8 -5 -8 15 0 53 -20 157 -32 161 -14 5 -15 82 -1 82 6 0 10 -4 10
-10z m3690 -51 c0 -5 -4 -9 -10 -9 -5 0 -10 7 -10 16 0 8 5 12 10 9 6 -3 10
-10 10 -16z m1580 11 c0 -5 -8 -10 -17 -10 -15 0 -16 2 -3 10 19 12 20 12 20
0z m-4160 -25 c16 -8 35 -14 42 -13 7 2 12 -1 13 -7 0 -5 4 -16 9 -24 8 -12
-76 31 -98 51 -16 13 2 9 34 -7z m2564 -16 c-7 -11 -34 -12 -34 -1 0 14 11 21
26 15 8 -3 11 -9 8 -14z m-2994 -29 c13 -8 13 -10 -2 -10 -9 0 -20 5 -23 10
-8 13 5 13 25 0z m215 -7 c22 -4 46 -7 54 -7 28 -2 23 -26 -6 -28 -52 -3 -138
4 -148 12 -5 4 -23 11 -40 15 -27 7 -28 8 -10 16 20 8 71 5 150 -8z m375 7 c0
-5 -7 -10 -15 -10 -8 0 -15 5 -15 10 0 6 7 10 15 10 8 0 15 -4 15 -10z m3590
-41 c0 -4 -7 -6 -15 -3 -8 4 -15 10 -15 15 0 4 7 6 15 3 8 -4 15 -10 15 -15z
m-4117 4 c-7 -2 -19 -2 -25 0 -7 3 -2 5 12 5 14 0 19 -2 13 -5z m-743 -17 c0
-3 -4 -8 -10 -11 -5 -3 -10 -1 -10 4 0 6 5 11 10 11 6 0 10 -2 10 -4z m907
-14 c7 -4 11 -18 10 -30 -1 -20 -5 -22 -27 -16 -14 4 -42 6 -63 5 -23 -1 -44
4 -54 14 -8 9 -27 15 -42 15 -14 -1 -37 -1 -51 0 l-25 2 25 8 c32 10 211 12
227 2z m4339 -7 c-11 -8 -24 -15 -30 -15 -5 0 -1 7 10 15 10 8 24 14 29 14 6
0 1 -6 -9 -14z m-4634 -5 c52 -15 57 -30 6 -19 -48 11 -83 28 -58 29 8 0 32
-5 52 -10z m732 -91 c14 -28 11 -75 -6 -85 -5 -3 -18 2 -29 12 -21 19 -18 34
4 15 15 -12 16 15 3 113 l-5 41 10 -35 c6 -19 16 -47 23 -61z m4286 72 c0 -4
-19 -16 -42 -25 -24 -9 -65 -33 -92 -54 -27 -20 -56 -41 -65 -47 -79 -48 -160
-108 -156 -115 3 -4 22 -11 42 -15 21 -4 42 -10 48 -13 5 -4 34 -14 64 -23 30
-8 56 -20 58 -26 8 -22 -53 -24 -106 -3 -29 11 -70 24 -92 29 -39 9 -40 9 -23
-10 9 -10 22 -19 29 -19 23 0 67 -58 68 -92 2 -28 -2 -34 -22 -36 -28 -4 -81
42 -75 66 4 12 -12 26 -58 49 -35 18 -73 34 -85 38 -13 3 -32 8 -43 11 -36 10
-21 -10 22 -31 54 -25 160 -113 153 -126 -4 -5 -18 -9 -33 -9 -43 1 -163 37
-191 58 -29 21 -43 69 -18 59 8 -3 18 -3 21 1 6 6 -92 54 -164 81 -67 25 -80
34 -80 57 0 12 6 25 13 28 6 4 3 5 -9 2 -12 -2 -29 1 -38 6 -20 11 -21 47 -1
54 8 4 12 10 9 15 -3 5 -10 7 -15 3 -13 -8 -40 16 -33 28 3 5 13 7 21 4 11 -4
13 -2 10 9 -9 21 9 28 27 10 8 -9 17 -14 20 -13 2 2 8 0 12 -4 4 -5 2 -8 -4
-8 -7 0 -12 -4 -12 -10 0 -5 6 -10 14 -10 7 0 19 -7 26 -15 7 -8 26 -15 43
-15 l30 0 -29 22 c-57 44 -58 46 -18 54 29 5 40 3 50 -11 11 -14 23 -17 59
-12 34 3 48 1 52 -9 6 -16 49 -19 58 -4 8 12 45 -22 64 -57 6 -13 25 -30 42
-38 16 -9 34 -27 39 -40 13 -33 30 -31 66 6 16 17 38 35 49 40 11 5 61 36 110
69 84 57 160 99 178 100 4 0 7 -4 7 -9z m490 2 c-14 -3 -29 -9 -34 -14 -6 -5
-19 -9 -30 -9 -21 1 -21 1 -2 15 11 8 36 14 55 14 28 -1 30 -3 11 -6z m-5406
-14 c3 -3 -4 -5 -14 -6 -11 -1 -22 2 -25 8 -6 9 30 7 39 -2z m421 -1 c14 -6
25 -14 25 -17 0 -4 14 -15 31 -25 17 -10 28 -20 26 -23 -9 -9 -77 26 -77 40 0
8 -10 19 -22 25 -31 14 -16 15 17 0z m3885 -2 c0 -3 -4 -8 -10 -11 -5 -3 -10
-1 -10 4 0 6 5 11 10 11 6 0 10 -2 10 -4z m225 -47 c11 -11 0 -11 -44 -3 -17
4 -28 10 -25 15 6 10 54 1 69 -12z m-1357 -7 c-10 -2 -18 -8 -18 -13 0 -5 -14
-9 -31 -9 -25 0 -28 2 -17 13 18 19 39 25 63 18 17 -5 18 -6 3 -9z m-3202 -19
c-7 -8 -96 9 -91 17 2 4 25 3 50 -3 25 -6 43 -12 41 -14z m3920 -12 c-20 -21
-23 -30 -14 -39 8 -8 1 -22 -33 -54 -88 -86 -120 -109 -135 -97 -11 9 -20 4
-45 -22 -38 -40 -56 -24 -31 26 18 34 59 45 69 19 10 -25 24 -2 18 28 -5 22
-3 29 7 27 23 -4 47 12 43 29 -2 9 -4 22 -5 27 -9 43 14 46 36 4 12 -24 18
-28 24 -18 5 7 5 20 1 28 -5 9 -11 28 -15 43 -6 26 -4 27 36 30 66 5 73 -1 44
-31z m74 9 c0 -29 -17 -33 -22 -5 -3 13 -3 27 0 29 9 10 22 -5 22 -24z m-3714
-2 c4 -6 2 -14 -5 -16 -8 -3 -6 -8 6 -18 17 -13 17 -13 -5 -14 -13 0 -21 -4
-18 -8 2 -4 -3 -13 -13 -19 -16 -10 -20 -7 -30 14 -12 27 -9 27 -115 6 -16 -4
-27 -2 -24 3 3 5 -16 9 -44 10 -27 1 -54 6 -61 13 -9 9 2 10 48 6 42 -4 54 -2
40 4 -18 9 -18 10 7 10 15 1 30 -4 33 -9 4 -7 13 -6 27 1 11 6 29 9 39 6 10
-3 17 -1 13 4 -3 5 -1 9 4 9 6 0 12 -7 16 -15 8 -21 23 -19 43 5 20 23 29 25
39 8z m3504 -4 c0 -9 -9 -18 -19 -21 -23 -6 -51 -60 -51 -96 0 -14 -4 -29 -10
-32 -6 -3 -7 1 -4 10 5 11 2 14 -10 9 -12 -4 -16 0 -16 15 0 12 -6 21 -15 21
-9 0 -15 -9 -15 -24 0 -39 -10 -56 -44 -73 -27 -14 -28 -17 -12 -23 16 -5 6
-19 -63 -92 -44 -47 -81 -93 -81 -102 0 -24 15 -20 34 9 9 14 32 31 50 39 24
10 37 24 45 49 13 38 38 55 47 32 4 -8 1 -29 -5 -46 -21 -60 -5 -69 24 -14 16
28 24 34 47 31 22 -3 33 3 48 24 14 19 26 27 39 23 14 -4 24 4 36 27 9 17 22
30 28 27 20 -6 19 -44 -2 -93 -22 -48 -28 -110 -11 -99 5 3 18 -3 28 -13 49
-49 67 -29 31 32 -20 35 -20 36 -2 36 11 0 30 -12 44 -26 34 -36 67 -52 123
-57 40 -3 53 -9 70 -33 36 -49 53 -63 75 -57 19 5 20 7 5 35 -9 17 -21 27 -29
25 -7 -3 -30 7 -51 22 -22 16 -64 36 -94 44 -71 21 -122 63 -125 104 -4 49 5
55 56 36 24 -9 51 -23 60 -30 8 -7 21 -13 29 -13 21 0 -8 29 -49 48 -33 17
-45 40 -34 68 10 27 64 12 133 -37 14 -9 36 -20 50 -24 22 -6 21 -3 -12 29
-62 57 -48 69 42 34 66 -26 119 -70 132 -112 8 -26 23 -45 44 -58 22 -13 34
-29 38 -52 7 -34 27 -58 51 -62 11 -2 12 2 3 16 -9 14 -9 22 1 34 17 20 31 20
59 0 14 -10 48 -16 96 -17 40 -1 80 -7 87 -13 16 -13 69 -24 69 -15 -1 3 -14
21 -30 40 -17 20 -26 39 -22 45 5 6 8 23 7 38 -1 40 21 42 63 5 60 -53 122
-99 122 -91 0 24 -44 94 -63 100 -25 7 -57 33 -57 46 0 13 39 9 71 -8 20 -10
41 -13 61 -9 21 5 28 4 24 -4 -4 -6 -14 -11 -22 -11 -32 0 22 -105 61 -116 11
-3 35 -13 54 -21 33 -15 34 -16 16 -30 -25 -18 -15 -34 54 -90 l52 -43 -32 0
c-20 0 -42 9 -56 22 -25 23 -44 18 -23 -7 11 -13 9 -15 -14 -15 -15 0 -26 6
-26 14 0 7 -26 33 -57 57 -32 23 -73 54 -92 68 l-35 26 26 -38 c14 -20 44 -58
67 -82 l42 -45 -78 1 c-43 1 -70 3 -61 6 16 4 16 6 2 29 -22 33 -37 30 -32 -6
l5 -30 -128 0 c-117 0 -129 2 -139 19 -13 26 -13 32 2 28 23 -4 20 40 -3 62
-25 23 -45 28 -32 9 4 -7 10 -37 13 -65 l6 -53 -61 0 c-54 0 -63 3 -82 28 -12
15 -31 38 -42 52 l-20 25 -1 -23 c0 -32 17 -62 43 -72 15 -6 -11 -9 -80 -9
-102 -1 -103 -1 -165 38 -35 22 -81 55 -104 75 -37 32 -64 45 -64 31 0 -3 9
-22 20 -42 11 -21 20 -48 20 -60 0 -12 5 -25 10 -28 6 -3 10 3 10 14 0 26 14
27 48 2 15 -10 34 -21 42 -24 8 -3 -60 -6 -152 -6 -158 -1 -167 0 -173 19 -8
26 -25 26 -25 0 0 -19 -7 -20 -126 -20 -69 0 -123 3 -121 7 3 5 1 17 -3 28 -7
19 -8 18 -20 -7 l-13 -28 -112 0 -113 0 18 58 c10 31 28 89 39 128 24 80 108
209 145 224 13 5 33 22 46 39 12 17 30 31 40 31 11 0 24 8 30 18 9 15 10 14 5
-5 -13 -49 67 -6 87 45 5 14 48 25 48 13 0 -6 5 -11 10 -11 6 0 10 6 9 13 -4
31 2 39 24 33 16 -4 28 1 40 14 20 24 27 25 27 4z m760 6 c0 -5 -5 -10 -11
-10 -5 0 -7 5 -4 10 3 6 8 10 11 10 2 0 4 -4 4 -10z m120 -5 c0 -8 -6 -15 -14
-15 -17 0 -28 14 -19 24 12 12 33 6 33 -9z m-3765 -4 c3 -5 1 -12 -5 -16 -5
-3 -10 1 -10 9 0 18 6 21 15 7z m-1535 -11 c0 -5 -5 -10 -11 -10 -5 0 -7 5 -4
10 3 6 8 10 11 10 2 0 4 -4 4 -10z m1450 -10 c0 -11 0 -23 1 -27 0 -4 -4 -9
-10 -11 -6 -2 -11 10 -11 27 0 17 5 31 10 31 6 0 10 -9 10 -20z m4370 -10 c0
-5 -4 -10 -10 -10 -5 0 -10 5 -10 10 0 6 5 10 10 10 6 0 10 -4 10 -10z m-3845
-113 c77 -79 87 -106 15 -41 -22 20 -37 41 -33 48 3 6 0 6 -8 -1 -10 -10 -10
-16 -1 -25 7 -7 12 -17 12 -22 0 -12 -43 35 -65 69 -7 11 -15 36 -18 55 -6 33
-5 34 8 14 8 -11 49 -55 90 -97z m2653 80 c3 -21 -7 -33 -48 -66 -56 -44 -74
-50 -84 -25 -11 28 -7 34 39 56 25 12 45 27 45 33 0 15 22 36 35 32 5 -2 11
-15 13 -30z m-4324 -65 c4 -82 1 -95 -23 -100 -9 -2 -11 3 -7 15 4 9 10 52 13
95 3 43 8 77 10 75 2 -2 5 -40 7 -85z m513 72 c-3 -3 -12 -4 -19 -1 -8 3 -5 6
6 6 11 1 17 -2 13 -5z m26 -24 c-6 -22 -23 -24 -88 -11 l-40 8 53 8 c29 4 55
12 58 16 9 16 22 0 17 -21z m4611 -2 c-10 -13 -19 -24 -19 -24 0 -1 -9 2 -20
6 -18 6 -17 8 10 23 42 23 51 21 29 -5z m-5322 -103 c32 -31 37 -34 24 -13
-23 38 -20 46 5 14 11 -14 22 -37 23 -51 3 -23 3 -23 -20 -7 -13 9 -26 24 -29
33 -7 20 -110 99 -130 99 -17 0 -28 17 -20 30 7 12 86 -44 147 -105z m2265 83
c-3 -7 -5 -2 -5 12 0 14 2 19 5 13 2 -7 2 -19 0 -25z m3168 22 c4 -6 -5 -10
-20 -10 -15 0 -24 4 -20 10 3 6 12 10 20 10 8 0 17 -4 20 -10z m-3337 -97 c36
-35 62 -63 57 -63 -5 0 -17 8 -28 17 -18 17 -19 17 -16 -2 2 -11 10 -26 17
-33 24 -26 11 -32 -23 -10 -37 24 -47 42 -17 31 15 -6 15 -5 3 10 -7 9 -20 17
-28 17 -8 0 -11 5 -8 10 4 6 12 7 18 3 7 -4 7 -1 -1 9 -8 9 -20 14 -28 11 -7
-3 -17 2 -20 11 -3 9 -10 13 -15 10 -5 -3 -9 3 -9 13 0 10 -7 29 -17 42 l-16
24 32 -19 c18 -10 63 -47 99 -81z m2446 91 c17 -7 22 -34 6 -34 -5 0 -14 9
-20 20 -12 22 -10 23 14 14z m-4711 -17 c4 3 7 1 7 -5 0 -6 24 -24 54 -41 78
-45 94 -70 21 -33 -33 16 -72 36 -87 43 -17 7 -28 20 -28 32 0 15 3 17 13 8 8
-6 17 -8 20 -4z m812 -7 c-3 -5 -11 -10 -16 -10 -6 0 -7 5 -4 10 3 6 11 10 16
10 6 0 7 -4 4 -10z m850 -1 c11 -17 -1 -21 -15 -4 -8 9 -8 15 -2 15 6 0 14 -5
17 -11z m4035 -5 c0 -2 -15 -4 -32 -3 -27 0 -29 2 -13 8 18 8 45 4 45 -5z
m676 -12 c-10 -2 -22 0 -28 6 -6 6 0 7 19 4 21 -5 23 -7 9 -10z m-3907 -47 c0
-5 -6 1 -14 15 -8 14 -14 30 -14 35 0 6 6 -1 14 -15 8 -14 14 -29 14 -35z
m-940 -1 c2 -2 -5 -4 -17 -4 -12 0 -25 0 -29 -1 -4 0 -9 5 -11 11 -3 7 5 9 25
4 15 -4 30 -8 32 -10z m351 -51 c8 -8 -6 -2 -32 12 -26 15 -51 32 -55 38 -8
12 64 -29 87 -50z m740 37 c13 -11 41 -23 63 -27 26 -4 34 -9 25 -14 -9 -6 -7
-9 8 -9 12 0 25 -10 32 -25 10 -21 9 -23 -6 -18 -9 3 -23 10 -29 16 -8 5 -13
5 -13 0 0 -5 -9 -9 -20 -9 -25 0 -26 13 -2 19 15 3 15 5 -3 12 -67 25 -84 36
-82 55 2 24 -1 24 27 0z m-1900 0 c13 -9 13 -10 0 -10 -8 0 -22 5 -30 10 -13
9 -13 10 0 10 8 0 22 -5 30 -10z m1073 -16 c4 -8 15 -14 22 -14 8 0 15 -4 15
-10 0 -5 -6 -10 -14 -10 -8 0 -18 5 -21 10 -3 6 -13 10 -22 10 -8 0 -27 10
-41 21 l-27 22 40 -8 c22 -4 44 -13 48 -21z m3797 16 c8 -5 11 -10 5 -11 -24
-3 -61 3 -69 12 -13 12 45 12 64 -1z m-4780 -10 c0 -5 -4 -10 -10 -10 -5 0
-10 5 -10 10 0 6 5 10 10 10 6 0 10 -4 10 -10z m1171 -7 c13 -16 12 -17 -3 -4
-10 7 -18 15 -18 17 0 8 8 3 21 -13z m-1059 -3 c36 -10 78 -50 78 -74 0 -6
-10 4 -21 21 -18 28 -25 32 -53 28 -35 -4 -111 17 -99 28 9 10 52 8 95 -3z
m-928 -43 c1 -7 5 -18 10 -25 6 -10 3 -13 -10 -10 -14 2 -20 13 -22 43 -2 33
0 37 9 22 6 -11 12 -24 13 -30z m63 28 c8 -9 13 -18 11 -21 -3 -2 -13 5 -23
16 -21 23 -11 27 12 5z m2350 3 c12 -15 24 -48 18 -48 -2 0 -13 14 -25 30 -20
28 -14 44 7 18z m3696 5 c-7 -2 -21 -2 -30 0 -10 3 -4 5 12 5 17 0 24 -2 18
-5z m-5950 -62 c-2 -3 -18 10 -36 29 l-32 34 36 -30 c20 -16 34 -31 32 -33z
m589 46 c7 -8 23 -13 36 -12 12 1 22 -3 22 -9 0 -6 -19 -11 -44 -11 -24 0 -39
3 -33 7 8 5 7 8 -3 8 -13 0 -13 2 -1 9 11 7 9 10 -10 14 -22 4 -22 4 -2 6 12
0 28 -5 35 -12z m2764 -1 c8 -8 14 -21 14 -28 0 -10 -3 -9 -10 2 -9 13 -10 13
-11 0 0 -10 -3 -8 -9 5 -16 38 -10 46 16 21z m-2860 -6 c21 -9 25 -13 15 -23
-10 -9 -15 -8 -24 4 -7 9 -21 19 -32 22 -15 4 -16 5 -3 6 9 0 29 -4 44 -9z
m801 4 c-3 -3 -12 -4 -19 -1 -8 3 -5 6 6 6 11 1 17 -2 13 -5z m5199 -24 c3 0
14 5 25 10 13 7 19 7 19 0 0 -5 -5 -10 -11 -10 -5 0 -7 -5 -4 -10 4 -6 12 -7
18 -3 20 13 57 10 57 -4 0 -7 -3 -12 -7 -11 -14 2 -43 -14 -43 -24 0 -6 11 -8
25 -6 22 5 25 2 25 -23 0 -29 -22 -40 -35 -19 -3 6 -14 10 -24 10 -10 0 -21 9
-24 20 -8 31 -28 24 -25 -9 1 -16 -3 -35 -10 -43 -9 -11 -8 -20 5 -38 l16 -23
-51 6 c-38 4 -52 3 -52 -7 0 -6 -6 -20 -13 -31 -13 -17 -15 -17 -36 4 -21 21
-21 22 -4 49 10 15 23 32 29 39 6 6 9 23 7 37 -3 16 -1 26 6 26 6 0 11 7 11
16 0 20 19 8 30 -20 4 -12 3 -26 -3 -34 -17 -21 1 -27 23 -7 26 23 25 43 -1
72 l-22 22 27 10 c14 6 27 16 27 23 1 7 3 5 6 -4 2 -10 7 -18 9 -18z m-5095 3
c13 -16 12 -17 -3 -4 -17 13 -22 21 -14 21 2 0 10 -8 17 -17z m77 -19 c-4 -3
-12 5 -18 18 -12 22 -12 22 6 6 10 -10 15 -20 12 -24z m468 6 c26 -23 6 -23
-40 0 -26 12 -46 23 -46 25 0 7 72 -14 86 -25z m857 10 c3 -11 1 -18 -4 -14
-5 3 -9 12 -9 20 0 20 7 17 13 -6z m3457 9 c0 -7 8 -18 18 -26 15 -13 15 -13
-6 -3 -13 7 -26 9 -29 6 -3 -3 -15 0 -26 5 -16 9 -17 13 -6 20 20 12 49 11 49
-2z m67 5 c-3 -3 -12 -4 -19 -1 -8 3 -5 6 6 6 11 1 17 -2 13 -5z m-381 -20
c18 -15 17 -15 -16 -10 -33 5 -34 5 -16 -9 19 -14 19 -15 -7 -15 -15 0 -36 9
-46 19 -20 20 -19 20 12 24 18 2 37 5 43 5 5 1 19 -5 30 -14z m417 -14 c-3
-11 -10 -23 -16 -27 -7 -4 -8 0 -4 11 4 10 7 24 7 32 0 9 4 13 9 10 5 -3 7
-15 4 -26z m-5936 14 c-3 -3 -12 -4 -19 -1 -8 3 -5 6 6 6 11 1 17 -2 13 -5z
m313 -4 c12 -8 9 -10 -12 -10 -15 0 -30 5 -33 10 -8 13 25 13 45 0z m601 -7
c4 -5 -28 -8 -72 -7 -46 0 -84 5 -91 12 -8 8 9 10 72 7 46 -3 87 -8 91 -12z
m1119 2 c7 -9 8 -15 2 -15 -5 0 -12 7 -16 15 -3 8 -4 15 -2 15 2 0 9 -7 16
-15z m-2547 -12 c3 -5 -6 -9 -20 -10 -19 -1 -22 1 -12 8 17 11 26 11 32 2z
m664 1 c-3 -3 -12 -4 -19 -1 -8 3 -5 6 6 6 11 1 17 -2 13 -5z m175 -28 c11
-17 4 -17 -48 -1 -60 18 -66 18 -34 0 17 -10 20 -14 9 -15 -24 0 -47 29 -30
39 15 10 93 -8 103 -23z m-306 5 c10 2 39 -7 64 -20 9 -5 31 -12 50 -16 79
-16 110 -26 110 -37 0 -9 -3 -9 -11 -1 -6 6 -28 9 -50 6 -25 -4 -39 -2 -39 6
0 6 -15 11 -33 11 -18 0 -42 7 -53 15 -10 8 -29 15 -40 15 -13 0 -24 8 -27 21
-4 16 -3 18 8 9 7 -6 17 -10 21 -9z m1372 2 c9 -8 11 -11 4 -8 -7 4 -25 4 -38
1 -21 -6 -24 -9 -14 -21 17 -21 -3 -19 -31 4 -13 10 -37 23 -54 29 -26 10 -21
11 43 10 46 -1 79 -6 90 -15z m59 11 c-3 -3 -12 -4 -19 -1 -8 3 -5 6 6 6 11 1
17 -2 13 -5z m953 -9 c0 -8 -4 -15 -9 -15 -13 0 -22 16 -14 24 11 11 23 6 23
-9z m2965 5 c4 -6 -8 -10 -29 -10 -19 0 -38 5 -41 10 -4 6 8 10 29 10 19 0 38
-4 41 -10z m-5176 -37 c4 -3 -5 -3 -19 0 -14 4 -32 7 -41 7 -9 0 -16 6 -16 14
0 13 5 13 36 0 19 -8 37 -17 40 -21z m706 27 c8 -13 -25 -13 -45 0 -12 8 -9
10 12 10 15 0 30 -4 33 -10z m1839 1 c11 -4 15 -10 10 -13 -5 -4 -18 0 -29 8
-20 15 -12 17 19 5z m2369 -6 c1 -6 -10 -11 -25 -13 -31 -4 -39 14 -10 21 23
6 33 4 35 -8z m-4408 -14 c-3 -6 -11 -8 -17 -5 -6 4 -5 9 3 15 16 10 23 4 14
-10z m2325 4 c0 -8 -4 -15 -10 -15 -5 0 -10 7 -10 15 0 8 5 15 10 15 6 0 10
-7 10 -15z m-3480 -57 c0 -17 -2 -18 -15 -8 -9 7 -14 19 -11 26 3 7 1 16 -4
19 -6 4 -10 12 -10 18 1 21 40 -34 40 -55z m258 37 c-3 -3 -9 2 -12 12 -6 14
-5 15 5 6 7 -7 10 -15 7 -18z m2891 -5 c18 -17 27 -30 20 -30 -8 0 -29 14 -47
30 -43 39 -17 39 27 0z m-2759 5 c16 -9 19 -14 9 -15 -8 0 -24 7 -35 15 -24
18 -7 19 26 0z m854 -1 c10 -25 2 -26 -24 -4 -22 19 -22 20 -3 20 12 0 24 -7
27 -16z m80 -4 c17 -17 -37 -11 -59 7 -19 15 -18 15 15 9 19 -3 39 -11 44 -16z
m4317 5 c19 -11 50 -15 92 -13 48 2 62 0 62 -12 0 -19 35 -28 115 -29 57 -1
62 -3 45 -14 -21 -15 -148 -8 -176 8 -7 5 -34 10 -59 10 -48 2 -140 37 -140
54 0 16 26 13 61 -4z m759 8 c0 -5 -11 -24 -23 -43 -17 -26 -30 -36 -54 -38
-29 -3 -33 0 -33 22 0 20 9 29 43 45 45 21 67 25 67 14z m-4685 -13 c19 -8 19
-9 -2 -9 -12 -1 -25 4 -28 9 -7 12 2 12 30 0z m-1570 -50 c14 -22 -13 -8 -41
22 l-29 31 32 -22 c18 -12 35 -26 38 -31z m334 36 c9 -11 6 -12 -14 -8 -14 2
-22 8 -19 13 8 13 20 11 33 -5z m2197 5 c-4 -5 -1 -11 5 -13 17 -6 -30 -34
-68 -41 -30 -6 -33 -4 -33 18 0 19 5 25 23 25 12 0 29 5 37 10 19 12 43 13 36
1z m3384 5 c0 -2 -7 -6 -15 -10 -8 -3 -15 -1 -15 4 0 6 7 10 15 10 8 0 15 -2
15 -4z m-3300 -37 c0 -5 11 -2 24 6 23 15 23 15 23 -12 0 -15 -2 -22 -4 -15
-7 19 -19 15 -58 -19 -20 -18 -39 -29 -42 -25 -3 3 0 6 8 6 12 0 11 2 -1 11
-11 8 -12 12 -2 16 6 2 12 13 12 22 0 10 3 20 6 24 8 8 34 -3 34 -14z m450 11
c0 -5 -2 -10 -4 -10 -3 0 -8 5 -11 10 -3 6 -1 10 4 10 6 0 11 -4 11 -10z
m-3175 -20 c3 -6 -1 -7 -9 -4 -18 7 -21 14 -7 14 6 0 13 -4 16 -10z m912 4
c-3 -3 -12 -4 -19 -1 -8 3 -5 6 6 6 11 1 17 -2 13 -5z m1927 -9 c-6 -16 -24
-21 -24 -7 0 11 11 22 21 22 5 0 6 -7 3 -15z m3239 8 c7 -6 -21 -32 -35 -33
-5 0 -8 9 -8 20 0 19 28 28 43 13z m517 -60 c-1 -50 -3 -63 -11 -51 -5 10 -25
20 -44 24 -39 7 -39 7 -23 33 10 16 15 17 32 7 12 -6 24 -15 28 -21 4 -5 8 9
8 33 0 23 2 42 5 42 3 0 5 -30 5 -67z m-4313 50 c-3 -5 24 -8 59 -9 35 0 64 3
64 8 0 10 41 10 58 0 18 -12 5 -39 -21 -46 -20 -4 -161 -9 -227 -7 -14 1 -32
6 -40 11 -13 9 -13 11 0 20 8 5 32 10 53 10 20 0 37 5 37 10 0 6 5 10 11 10 5
0 8 -3 6 -7z m-1327 -23 c-20 -13 -57 -13 -65 0 -4 6 11 10 37 10 31 0 39 -3
28 -10z m575 0 c-27 -12 -35 -12 -35 0 0 6 12 10 28 9 24 0 25 -1 7 -9z m1573
-7 c6 -19 -33 -16 -49 3 -11 14 -9 15 16 12 16 -1 30 -9 33 -15z m3052 13 c0
-2 -7 -6 -15 -10 -8 -3 -15 -1 -15 4 0 6 7 10 15 10 8 0 15 -2 15 -4z m-4235
-16 c-3 -5 -17 -10 -30 -10 -13 0 -27 5 -30 10 -4 6 8 10 30 10 22 0 34 -4 30
-10z m174 -10 c35 -5 66 -12 70 -16 3 -4 -19 -3 -49 1 -30 4 -75 9 -100 10
-56 3 -58 3 -41 14 8 5 24 7 35 5 12 -2 50 -8 85 -14z m-1444 0 c3 -5 2 -10
-4 -10 -5 0 -13 5 -16 10 -3 6 -2 10 4 10 5 0 13 -4 16 -10z m2169 -6 c3 -8 2
-13 -3 -10 -5 3 -11 -1 -15 -9 -3 -8 -12 -15 -21 -15 -8 0 -15 -6 -15 -14 0
-22 -85 -31 -112 -11 -22 16 -21 16 27 14 44 -2 54 1 85 29 39 36 45 38 54 16z
m-1999 -5 c10 -15 -1 -22 -24 -14 -12 3 -19 11 -16 16 8 12 32 11 40 -2z m172
5 c-3 -3 -12 -4 -19 -1 -8 3 -5 6 6 6 11 1 17 -2 13 -5z m5484 -37 c-5 -12
-16 -22 -26 -22 -26 0 -30 22 -6 30 12 3 21 11 21 16 0 6 4 8 10 4 5 -3 6 -15
1 -28z m-4624 17 c-3 -3 -12 -4 -19 -1 -8 3 -5 6 6 6 11 1 17 -2 13 -5z m675
-10 c-34 -15 -72 -11 -72 7 0 5 24 9 53 8 l52 -1 -33 -14z m-1388 0 c63 -9 58
-24 -8 -24 -58 0 -86 7 -86 21 0 11 30 11 94 3z m454 -6 c6 -1 12 -5 12 -10 0
-15 -73 -4 -78 11 -4 11 2 12 24 7 16 -4 35 -7 42 -8z m322 -9 c0 -5 -7 -9
-15 -9 -8 0 -15 7 -15 15 0 9 6 12 15 9 8 -4 15 -10 15 -15z m90 11 c0 -5 -2
-10 -4 -10 -3 0 -8 5 -11 10 -3 6 -1 10 4 10 6 0 11 -4 11 -10z m407 4 c-3 -3
-12 -4 -19 -1 -8 3 -5 6 6 6 11 1 17 -2 13 -5z m-1648 -13 c10 -6 10 -10 1
-16 -14 -9 -60 2 -60 15 0 12 40 13 59 1z m576 -1 c-3 -5 -13 -10 -21 -10 -8
0 -12 5 -9 10 3 6 13 10 21 10 8 0 12 -4 9 -10z m414 -4 c10 -12 4 -14 -34
-13 -25 1 -45 -1 -45 -5 0 -5 -4 -8 -10 -8 -21 0 -9 19 18 28 39 15 58 14 71
-2z m-1369 -6 c0 -5 -4 -10 -10 -10 -5 0 -10 5 -10 10 0 6 5 10 10 10 6 0 10
-4 10 -10z m468 3 c-10 -2 -26 -2 -35 0 -10 3 -2 5 17 5 19 0 27 -2 18 -5z
m96 1 c15 -6 23 -34 9 -34 -16 0 -73 25 -73 32 0 9 41 11 64 2z m453 0 c-3 -3
-12 -4 -19 -1 -8 3 -5 6 6 6 11 1 17 -2 13 -5z m721 -37 c-8 -24 -16 -36 -25
-33 -7 3 -13 1 -13 -4 0 -16 102 -11 134 5 15 8 32 12 37 9 5 -3 6 2 3 11 -5
13 -1 15 22 11 16 -2 37 -5 47 -5 30 -2 8 -21 -23 -21 -55 0 -41 -19 17 -23
32 -2 -89 -4 -269 -5 -181 0 -328 3 -328 7 0 5 35 10 78 12 59 3 83 8 97 22
14 15 27 17 61 12 27 -4 45 -2 49 5 5 8 11 6 19 -6 9 -12 15 -14 20 -6 4 7 17
12 29 13 21 0 21 1 2 8 -18 8 -16 10 15 18 19 6 36 9 37 8 1 0 -3 -18 -9 -38z
m689 27 c-3 -3 -12 -4 -19 -1 -8 3 -5 6 6 6 11 1 17 -2 13 -5z m-1247 -13 c0
-19 -31 -32 -67 -29 l-38 4 30 7 c17 5 37 12 45 17 20 12 30 12 30 1z m649 3
c32 -7 32 -7 -26 -30 -31 -13 -58 -22 -60 -20 -4 4 40 55 48 55 4 1 21 -2 38
-5z m348 -7 c4 -5 0 -5 -10 -1 -13 5 -16 2 -11 -10 7 -18 -11 -22 -21 -5 -4 6
-19 10 -33 9 -44 -3 -59 1 -32 10 30 9 96 7 107 -3z m1133 3 c0 -5 -4 -10 -10
-10 -5 0 -10 5 -10 10 0 6 5 10 10 10 6 0 10 -4 10 -10z m2590 -4 c0 -19 26
-39 69 -52 l36 -12 -39 -1 c-26 -1 -44 5 -55 17 -9 10 -24 22 -35 25 -15 6
-16 10 -6 22 16 19 30 19 30 1z m-5610 -6 c0 -5 -4 -10 -10 -10 -5 0 -10 5
-10 10 0 6 5 10 10 10 6 0 10 -4 10 -10z m707 4 c-3 -3 -12 -4 -19 -1 -8 3 -5
6 6 6 11 1 17 -2 13 -5z m4609 -19 c9 -14 15 -27 13 -29 -5 -5 -30 14 -48 37
-12 15 -11 17 3 17 8 0 23 -11 32 -25z m144 4 c0 -11 -4 -17 -10 -14 -5 3 -10
13 -10 21 0 8 5 14 10 14 6 0 10 -9 10 -21z m-4890 2 c0 -8 -47 -21 -76 -21
-20 0 -17 18 4 23 31 8 72 7 72 -2z m2237 3 c-3 -3 -12 -4 -19 -1 -8 3 -5 6 6
6 11 1 17 -2 13 -5z m2916 -9 c-4 -16 -40 -14 -40 2 0 8 9 13 21 11 12 -2 20
-7 19 -13z m-176 -2 c-12 -3 -16 -10 -12 -24 8 -23 -20 -27 -29 -4 -6 16 19
35 44 34 10 -1 9 -3 -3 -6z m-3540 -23 c19 -15 21 -20 9 -20 -9 0 -16 5 -16
10 0 6 -7 10 -15 10 -8 0 -15 5 -15 10 0 15 9 12 37 -10z m94 8 c25 1 36 -3
36 -13 0 -20 -83 -20 -102 -1 -17 16 -7 29 14 19 9 -4 32 -6 52 -5z m191 -5
c-6 -2 -10 -9 -6 -14 3 -5 -6 -9 -20 -9 -18 0 -24 4 -20 15 4 8 18 15 33 14
14 0 20 -3 13 -6z m-425 -9 c-3 -3 -12 -4 -19 -1 -8 3 -5 6 6 6 11 1 17 -2 13
-5z m343 -4 c11 -7 4 -10 -25 -10 -29 0 -36 3 -25 10 19 12 31 12 50 0z m3060
0 c11 -7 7 -10 -18 -10 -20 0 -31 4 -27 10 8 13 26 13 45 0z m125 0 c3 -5 -3
-10 -15 -10 -12 0 -18 5 -15 10 3 6 10 10 15 10 5 0 12 -4 15 -10z m-5732 -7
c-7 -2 -21 -2 -30 0 -10 3 -4 5 12 5 17 0 24 -2 18 -5z m2280 0 c-7 -2 -21 -2
-30 0 -10 3 -4 5 12 5 17 0 24 -2 18 -5z m3834 1 c-3 -3 -12 -4 -19 -1 -8 3
-5 6 6 6 11 1 17 -2 13 -5z"/>
<path d="M1660 3567 c0 -7 -13 -21 -29 -30 -28 -17 -30 -17 -40 0 -6 10 -11
12 -11 6 0 -7 -9 -13 -20 -13 -11 0 -20 -4 -20 -9 0 -6 -16 -7 -36 -4 -34 6
-36 5 -25 -15 14 -26 14 -59 1 -67 -6 -4 -9 -1 -8 6 7 33 -72 4 -98 -36 -18
-27 -27 -173 -14 -210 4 -11 3 -31 -1 -44 -7 -17 -5 -31 6 -47 19 -30 19 -49
-2 -80 -13 -20 -14 -30 -6 -44 9 -13 8 -21 0 -30 -9 -10 -9 -14 0 -17 9 -3 8
-13 -2 -37 -13 -32 -13 -36 10 -62 15 -18 20 -31 14 -35 -6 -3 -10 -17 -8 -30
1 -13 -2 -32 -6 -42 -9 -20 17 -50 53 -61 31 -10 28 -28 -3 -20 -22 5 -25 3
-23 -20 1 -14 5 -26 8 -26 4 0 13 -11 20 -25 7 -13 20 -26 29 -28 13 -4 11 -6
-6 -12 -22 -7 -22 -29 1 -50 6 -6 20 -21 31 -35 l20 -24 -30 18 c-30 19 -30
19 -12 -1 9 -11 17 -25 17 -31 0 -6 5 -14 12 -18 7 -4 8 -3 4 4 -9 14 4 15 24
2 11 -7 11 -10 2 -10 -9 0 -10 -5 -4 -16 10 -18 5 -54 -8 -54 -4 0 -7 -7 -6
-16 0 -9 -5 -19 -11 -21 -16 -6 -17 29 -1 45 8 8 8 15 -2 27 -10 12 -15 13
-21 4 -5 -9 -14 -8 -33 5 -15 9 -24 22 -20 28 4 7 3 8 -4 4 -16 -9 -4 -37 26
-63 18 -15 25 -31 25 -57 0 -20 4 -36 9 -36 4 0 8 -9 8 -20 0 -13 -5 -18 -15
-14 -20 8 -32 -25 -14 -37 8 -5 22 -9 33 -9 15 0 16 3 6 15 -11 13 -10 14 4 9
9 -3 16 -9 16 -14 0 -4 10 -12 23 -18 22 -11 22 -11 -4 -11 -20 -1 -28 -7 -32
-27 -5 -30 10 -39 49 -30 21 6 25 4 21 -8 -5 -12 0 -16 19 -16 14 0 23 4 20 9
-3 5 12 13 34 19 23 5 40 6 40 1 0 -5 -8 -9 -19 -9 -10 0 -26 -11 -35 -25 -10
-15 -22 -22 -31 -19 -8 4 -22 1 -30 -6 -11 -10 -18 -9 -30 4 -18 17 -31 20
-37 8 -1 -4 -18 -18 -37 -31 -30 -22 -34 -23 -43 -8 -11 21 -44 22 -51 2 -7
-17 48 -60 64 -49 6 3 28 -11 50 -32 32 -31 36 -40 26 -53 -9 -11 -9 -13 0 -8
6 4 14 3 18 -3 3 -5 1 -10 -6 -10 -15 0 68 -60 89 -65 33 -7 107 -36 130 -51
32 -21 137 -31 126 -12 -6 10 -5 11 7 1 8 -7 24 -12 34 -11 11 0 40 -7 64 -16
55 -20 67 -20 50 1 -9 10 -9 14 -2 10 15 -9 -1 22 -34 70 -13 17 -23 34 -23
38 0 7 71 -50 122 -97 28 -26 29 -26 22 -5 -3 12 -15 38 -26 57 -19 33 -17 32
20 -10 39 -44 63 -51 44 -13 -5 10 -12 30 -16 45 -5 23 -3 26 13 23 11 -2 22
3 25 12 5 12 0 13 -27 9 -17 -3 -26 -3 -19 0 19 9 14 23 -7 17 -37 -10 -31 16
6 27 21 6 47 17 57 25 18 14 15 15 -32 11 -36 -3 -50 -1 -46 6 4 7 2 8 -5 4
-6 -4 -28 -10 -49 -12 -20 -3 -63 -14 -96 -25 -32 -11 -60 -18 -62 -16 -2 1
26 16 61 31 36 16 65 32 65 37 0 4 27 11 60 15 34 4 59 9 57 11 -15 14 -293
-1 -313 -18 -6 -5 -18 -7 -27 -3 -8 3 -18 1 -22 -5 -9 -16 -25 -14 -25 3 0 14
27 27 65 31 11 1 54 5 95 10 41 4 95 15 120 25 44 18 44 19 20 28 -22 8 -20
10 23 16 44 7 74 24 45 27 -7 1 3 5 22 9 l35 8 -40 -1 c-27 -2 -39 -6 -37 -15
2 -9 -2 -11 -10 -5 -7 4 -16 8 -20 8 -19 0 -18 15 1 15 12 0 20 4 17 9 -3 5
-14 7 -24 5 -20 -5 -50 12 -39 22 4 4 13 2 19 -4 21 -21 29 -13 12 13 -9 14
-28 28 -43 32 -14 3 -32 12 -39 20 -17 16 -56 18 -46 1 5 -8 2 -9 -12 -3 -10
4 -34 13 -51 19 -41 16 -52 26 -27 27 10 1 23 1 27 0 5 -1 32 -2 60 -2 29 -1
55 -6 58 -11 3 -4 14 -10 25 -13 10 -2 46 -11 79 -20 33 -9 73 -14 88 -11 16
3 38 1 49 -5 16 -9 23 -7 37 8 18 18 11 37 -14 40 -5 1 -11 7 -13 15 -2 8 0 9
5 3 16 -19 33 -15 39 10 5 20 11 24 25 20 25 -8 21 13 -6 37 -15 13 -17 17 -5
18 12 0 12 2 1 9 -9 6 -10 14 -4 27 5 11 9 34 8 51 -2 18 1 31 5 28 13 -8 19
22 7 34 -15 15 -21 14 -44 -6 -15 -14 -18 -28 -15 -65 2 -27 9 -48 15 -48 5 0
-3 -12 -19 -26 l-29 -25 29 3 c18 2 31 -2 34 -11 4 -11 -2 -12 -24 -7 -28 7
-28 7 -10 -13 18 -20 18 -20 -20 -14 -49 7 -52 10 -23 22 13 5 18 10 10 10
-10 1 -11 4 -2 14 9 12 14 53 11 97 -1 8 2 25 5 37 9 29 -22 43 -112 52 -6 0
-16 15 -22 32 -10 28 -9 30 12 23 12 -3 26 -10 31 -15 18 -16 32 -9 34 16 1
14 -5 28 -16 34 -16 10 -16 10 1 11 10 0 15 4 12 10 -3 5 1 20 9 32 23 32 21
37 -21 55 -27 12 -33 18 -20 21 20 4 23 22 3 22 -8 0 -16 4 -18 9 -1 4 -12 11
-24 15 -23 7 -69 -25 -56 -39 4 -5 -5 -1 -20 8 -34 21 -35 21 -41 -3 -3 -13
-10 -18 -21 -14 -9 3 -16 11 -16 16 0 6 7 8 15 4 10 -3 15 1 15 14 0 10 7 26
16 34 8 9 12 20 9 26 -3 5 3 10 14 10 16 0 20 5 17 23 -2 12 3 40 11 61 15 45
8 129 -13 161 -8 11 -14 46 -14 81 0 44 -5 65 -16 74 -11 10 -14 24 -9 54 5
30 3 37 -4 26 -9 -13 -11 -13 -11 1 0 9 -7 19 -15 23 -8 3 -15 13 -15 22 0 9
-15 31 -34 49 -21 19 -36 45 -39 64 -6 38 -17 53 -17 25 0 -16 -2 -17 -10 -4
-5 8 -10 11 -10 7 0 -11 -56 55 -62 72 -7 22 -38 22 -38 0 0 -12 -5 -16 -15
-13 -8 4 -15 12 -15 20 0 8 -4 14 -10 14 -5 0 -10 -6 -10 -13z m224 -681 c-6
-15 -34 -31 -34 -19 0 5 30 32 37 33 1 0 0 -6 -3 -14z m-65 -103 c-3 -21 2
-26 12 -13 9 12 10 12 5 -3 -3 -10 -6 -25 -6 -33 0 -9 -4 -13 -9 -10 -10 7
-20 53 -13 61 8 7 12 6 11 -2z m111 -24 c0 -5 -4 -9 -10 -9 -5 0 -10 -7 -10
-17 0 -22 -6 -14 -14 19 -5 23 -3 25 14 21 11 -3 20 -9 20 -14z m-295 1 c9
-14 -32 -17 -61 -5 l-29 12 43 0 c23 0 45 -3 47 -7z m231 -55 c-17 -13 -34
-21 -40 -18 -5 3 1 14 13 25 13 10 27 15 32 12 5 -3 9 0 9 7 0 7 3 9 8 5 4 -4
-6 -18 -22 -31z m-62 9 c3 -8 2 -12 -4 -9 -5 3 -20 1 -32 -6 -23 -12 -23 -12
-4 10 23 25 32 26 40 5z m254 -66 c5 -7 13 -24 16 -38 7 -24 7 -25 -9 -5 -25
31 -37 55 -27 55 5 0 14 -6 20 -12z m-28 -128 c0 -4 -7 -11 -16 -14 -13 -5
-14 -4 -6 7 7 8 8 18 4 22 -4 5 -1 5 6 1 6 -4 12 -11 12 -16z m-560 -6 c0 -8
-4 -12 -10 -9 -5 3 -10 10 -10 16 0 5 5 9 10 9 6 0 10 -7 10 -16z m40 -20 c0
-2 -7 -4 -15 -4 -8 0 -15 4 -15 10 0 5 7 7 15 4 8 -4 15 -8 15 -10z m457 -16
c-3 -8 -6 -5 -6 6 -1 11 2 17 5 13 3 -3 4 -12 1 -19z m193 -13 c7 -9 8 -15 2
-15 -5 0 -12 7 -16 15 -3 8 -4 15 -2 15 2 0 9 -7 16 -15z m-455 -5 c8 -13 -5
-13 -25 0 -13 8 -13 10 2 10 9 0 20 -4 23 -10z m344 -35 c11 -19 17 -35 13
-35 -5 0 -16 16 -25 35 -9 19 -15 35 -13 35 2 0 13 -16 25 -35z m-25 -10 c3
-8 1 -15 -4 -15 -6 0 -10 7 -10 15 0 8 2 15 4 15 2 0 6 -7 10 -15z m157 -30
c5 4 9 -6 9 -20 0 -22 -2 -24 -14 -13 -7 8 -16 25 -20 38 -6 21 -5 22 4 7 6
-9 15 -15 21 -12z m-631 -45 c0 -5 -7 -10 -15 -10 -8 0 -15 5 -15 10 0 6 7 10
15 10 8 0 15 -4 15 -10z m60 -20 c-13 -9 -13 -10 1 -10 8 0 24 -7 35 -15 31
-24 2 -17 -41 10 l-40 24 30 1 c23 0 26 -3 15 -10z m140 -35 c23 -9 28 -14 15
-14 -11 0 -31 6 -45 14 -31 18 -16 18 30 0z m-167 -25 c5 -4 -3 -5 -17 -3 -15
3 -29 10 -32 15 -7 11 36 1 49 -12z m459 -2 c-7 -7 -12 -8 -12 -2 0 6 3 14 7
17 3 4 9 5 12 2 2 -3 -1 -11 -7 -17z m94 0 c5 -8 2 -9 -11 -5 -11 5 -23 1 -32
-10 -8 -10 -12 -12 -8 -5 3 6 0 12 -7 13 -15 0 20 17 39 18 6 1 15 -4 19 -11z
m-536 -43 c0 -3 -28 -1 -60 4 -3 1 2 5 9 10 13 9 51 -2 51 -14z m550 -5 c12
-8 11 -10 -7 -10 -13 0 -23 5 -23 10 0 13 11 13 30 0z m-624 -10 c15 -6 25
-13 22 -15 -3 -3 -20 1 -39 9 -38 17 -25 21 17 6z m109 0 c3 -5 2 -10 -4 -10
-5 0 -13 5 -16 10 -3 6 -2 10 4 10 5 0 13 -4 16 -10z m285 -57 c0 -5 16 -7 35
-5 52 6 43 -16 -10 -24 -30 -4 -50 -2 -59 6 -8 6 -27 10 -43 7 -27 -4 -27 -4
5 -6 17 0 32 -5 32 -10 0 -10 -60 -24 -68 -16 -3 3 3 5 14 5 16 1 15 3 -6 14
-14 8 -44 13 -67 11 -24 -1 -43 1 -43 6 0 4 23 8 51 7 28 0 52 2 55 4 8 9 104
9 104 1z m-345 -23 c3 -6 -1 -7 -9 -4 -18 7 -21 14 -7 14 6 0 13 -4 16 -10z
m395 -40 c13 -9 13 -10 0 -9 -8 0 -24 4 -35 9 l-20 9 20 0 c11 0 27 -4 35 -9z
m83 -12 c-6 -11 -31 -10 -37 1 -3 5 5 8 18 7 13 0 22 -4 19 -8z m-118 -18 c27
-7 26 -8 -15 -8 -25 0 -54 3 -65 8 -16 7 -13 9 15 8 19 0 49 -4 65 -8z m-420
-41 c-4 -5 -13 -9 -21 -9 -8 0 -12 -4 -9 -10 3 -5 1 -10 -4 -10 -17 0 -13 28
6 39 20 10 36 5 28 -10z m-125 -19 c8 -5 12 -11 9 -14 -3 -3 -14 1 -25 9 -21
16 -8 20 16 5z m247 -76 c-3 -3 -12 -4 -19 -1 -8 3 -5 6 6 6 11 1 17 -2 13 -5z
m203 -34 c0 -5 -5 -10 -11 -10 -5 0 -7 5 -4 10 3 6 8 10 11 10 2 0 4 -4 4 -10z"/>
<path d="M1205 3150 c-3 -5 1 -10 9 -10 8 0 18 5 21 10 3 6 -1 10 -9 10 -8 0
-18 -4 -21 -10z"/>
<path d="M3240 3051 c0 -10 30 -24 37 -17 3 3 2 9 -2 15 -8 13 -35 15 -35 2z"/>
<path d="M2075 2779 c4 -5 16 -9 27 -9 26 0 19 9 -11 15 -12 2 -19 0 -16 -6z"/>
<path d="M2150 2719 c0 -5 5 -7 10 -4 6 3 10 8 10 11 0 2 -4 4 -10 4 -5 0 -10
-5 -10 -11z"/>
<path d="M2962 2678 c-18 -18 -14 -69 8 -105 11 -18 23 -33 27 -33 12 0 15 98
4 104 -5 3 -7 15 -4 26 6 23 -15 28 -35 8z"/>
<path d="M2240 2620 c-9 -6 -10 -10 -3 -10 6 0 15 5 18 10 8 12 4 12 -15 0z"/>
<path d="M2233 2564 c0 -8 6 -14 14 -14 7 0 13 4 13 9 0 5 -6 11 -13 14 -8 3
-14 -1 -14 -9z"/>
<path d="M2084 2528 c-4 -6 -3 -8 4 -4 6 3 13 2 17 -4 3 -5 11 -10 17 -10 7 0
6 6 -2 15 -15 18 -26 19 -36 3z"/>
<path d="M2220 2520 c0 -5 -7 -6 -17 -3 -11 4 -14 3 -9 -5 10 -17 33 -15 40 3
3 8 1 15 -4 15 -6 0 -10 -4 -10 -10z"/>
<path d="M3481 2467 c-17 -68 -12 -96 21 -120 36 -27 75 -17 80 21 4 33 -19
110 -40 135 -28 32 -48 21 -61 -36z"/>
<path d="M1390 2470 c0 -5 5 -10 11 -10 5 0 7 5 4 10 -3 6 -8 10 -11 10 -2 0
-4 -4 -4 -10z"/>
<path d="M1409 2448 c-6 -21 -5 -38 2 -38 5 0 9 -6 9 -14 0 -24 26 -38 39 -22
10 12 8 21 -10 45 -19 26 -37 39 -40 29z"/>
<path d="M4100 2356 c0 -2 7 -7 16 -10 8 -3 12 -2 9 4 -6 10 -25 14 -25 6z"/>
<path d="M4077 2334 c4 -10 1 -15 -8 -13 -25 4 -49 -13 -49 -35 0 -17 2 -18
10 -6 7 11 10 11 10 2 0 -7 11 -1 25 14 25 27 33 54 15 54 -5 0 -7 -7 -3 -16z"/>
<path d="M3755 2330 c3 -5 8 -10 11 -10 2 0 4 5 4 10 0 6 -5 10 -11 10 -5 0
-7 -4 -4 -10z"/>
<path d="M1380 2322 c0 -11 59 -67 64 -61 7 6 -43 69 -55 69 -5 0 -9 -4 -9 -8z"/>
<path d="M2313 2310 c27 -22 37 -25 37 -12 0 8 -43 32 -57 32 -3 0 6 -9 20
-20z"/>
<path d="M4162 2304 c-7 -8 -11 -18 -7 -23 6 -10 36 -8 35 2 0 4 0 14 0 22 0
19 -11 19 -28 -1z"/>
<path d="M4563 2254 c1 -29 4 -51 8 -48 4 2 6 12 4 22 -1 9 2 23 8 30 18 22
16 51 -3 49 -14 -1 -17 -11 -17 -53z"/>
<path d="M4634 2279 c-15 -16 -35 -29 -43 -29 -14 0 -14 -1 -1 -10 9 -6 11
-10 3 -10 -7 0 -10 -7 -7 -15 4 -9 -1 -18 -12 -22 -63 -24 -68 -89 -9 -127 29
-19 109 -31 100 -15 -4 5 0 9 7 9 9 0 9 3 -2 10 -8 5 -10 10 -4 10 7 0 19 18
28 40 11 27 20 38 30 34 8 -3 12 -12 9 -20 -12 -33 21 -7 45 34 10 18 10 22 0
22 -10 0 -9 3 1 9 8 5 25 5 42 -1 15 -5 36 -8 46 -5 14 4 13 5 -4 6 -16 1 -21
6 -17 16 4 9 0 15 -9 15 -8 0 -18 11 -21 25 -8 31 -28 41 -97 48 -53 5 -59 3
-85 -24z"/>
<path d="M4126 2275 c-9 -26 -7 -32 5 -12 6 10 9 21 6 23 -2 3 -7 -2 -11 -11z"/>
<path d="M4188 2254 c-21 -14 -38 -27 -38 -30 0 -3 5 -2 12 2 6 4 33 8 60 9
46 2 48 1 32 -17 -15 -16 -15 -18 -2 -18 9 0 21 6 28 14 6 8 19 12 28 9 14 -6
15 -5 2 9 -8 9 -19 13 -24 10 -5 -3 -6 3 -3 12 6 14 3 17 -9 12 -8 -3 -23 -2
-32 3 -12 6 -28 1 -54 -15z m59 0 c-3 -3 -12 -4 -19 -1 -8 3 -5 6 6 6 11 1 17
-2 13 -5z"/>
<path d="M4408 2239 c-21 -12 -25 -44 -4 -36 7 3 18 1 24 -5 12 -12 52 -1 52
13 0 6 -10 8 -22 4 -23 -6 -23 -6 -3 10 19 16 19 16 -10 10 -23 -5 -26 -4 -15
4 19 14 1 14 -22 0z"/>
<path d="M4090 2220 c0 -5 10 -10 23 -10 18 0 19 2 7 10 -19 13 -30 13 -30 0z"/>
<path d="M4195 2210 c-4 -6 -13 -9 -21 -6 -8 3 -14 -1 -14 -9 0 -8 4 -15 8
-15 15 0 47 28 40 35 -3 3 -9 1 -13 -5z"/>
<path d="M5240 2213 c-14 -3 -31 -10 -38 -16 -11 -8 -8 -14 15 -25 l28 -15
-28 -10 c-15 -5 -24 -13 -21 -19 4 -6 -1 -8 -14 -4 -31 10 -35 -9 -7 -30 24
-18 36 -42 15 -29 -6 4 -18 1 -27 -7 -14 -11 -16 -11 -11 3 5 12 -1 15 -31 13
-55 -2 -81 -13 -74 -30 3 -7 14 -14 25 -14 10 0 17 -4 14 -9 -7 -11 23 -37 49
-44 17 -4 17 -5 -4 -6 -17 -1 -21 -5 -17 -17 3 -8 2 -12 -4 -9 -15 9 -12 -6 6
-26 8 -9 17 -30 19 -45 2 -16 4 -31 5 -34 2 -3 2 -9 1 -14 -3 -13 20 -26 47
-26 29 0 25 21 -6 35 -12 5 -22 13 -22 16 0 11 32 20 51 14 17 -6 18 -2 13 42
-3 26 -7 54 -10 61 -2 6 1 12 6 12 5 0 6 10 4 23 -3 12 -8 32 -11 45 -7 27 12
29 27 2 12 -23 30 -27 30 -6 0 8 -9 18 -20 21 -26 8 -25 17 4 44 29 28 50 75
42 96 -5 15 -11 16 -56 8z m-137 -160 c-7 -2 -21 -2 -30 0 -10 3 -4 5 12 5 17
0 24 -2 18 -5z"/>
<path d="M4274 2199 c-3 -5 -2 -9 3 -9 13 0 -21 -20 -35 -20 -7 0 -10 5 -7 10
10 16 -17 11 -37 -6 -14 -14 -20 -14 -33 -4 -17 14 -31 8 -20 -10 5 -7 21 -9
46 -5 27 5 39 3 37 -5 -7 -27 180 -67 197 -41 9 15 -43 50 -66 44 -12 -4 -26
1 -35 13 -9 11 -13 13 -9 7 4 -9 1 -11 -11 -6 -16 6 -16 7 0 18 15 11 15 13
-4 18 -11 3 -23 1 -26 -4z"/>
<path d="M4110 2191 c0 -6 5 -13 10 -16 6 -3 10 1 10 9 0 9 -4 16 -10 16 -5 0
-10 -4 -10 -9z"/>
<path d="M2060 2130 c0 -5 5 -10 10 -11 15 -2 47 -1 73 1 21 1 21 2 2 10 -28
12 -85 12 -85 0z"/>
<path d="M1430 2116 c0 -8 5 -18 10 -21 6 -3 10 3 10 14 0 12 -4 21 -10 21 -5
0 -10 -6 -10 -14z"/>
<path d="M4728 2083 c7 -3 16 -2 19 1 4 3 -2 6 -13 5 -11 0 -14 -3 -6 -6z"/>
<path d="M3862 2035 c-19 -6 -37 -16 -40 -22 -4 -5 -15 -12 -25 -16 -10 -4
-16 -11 -12 -16 3 -5 -4 -12 -15 -16 -11 -3 -20 -14 -20 -24 0 -32 -36 -52
-52 -29 -7 9 -8 8 -4 -6 4 -12 -4 -29 -23 -51 -16 -18 -31 -39 -33 -47 -4 -10
-10 -9 -27 6 -11 11 -24 16 -29 11 -4 -4 -1 -10 6 -12 6 -3 12 -10 12 -17 0
-8 10 -11 28 -9 19 3 37 -5 62 -27 19 -16 44 -33 55 -37 11 -3 37 -26 58 -49
25 -28 47 -44 62 -44 34 0 49 -23 27 -42 -19 -17 -142 -34 -142 -20 0 5 -11 7
-25 4 -14 -2 -25 0 -25 7 0 5 -7 8 -15 5 -8 -3 -20 -2 -27 2 -20 13 -41 14
-55 2 -9 -8 -13 -7 -13 2 0 9 -7 7 -22 -6 -13 -10 -17 -12 -10 -4 6 8 12 20
12 27 0 19 -20 16 -27 -4 -3 -10 -12 -25 -19 -33 -8 -9 -20 -36 -29 -60 -16
-47 -10 -44 29 14 11 18 12 15 9 -23 -2 -31 0 -41 9 -38 7 2 13 11 12 19 -1 8
5 15 12 15 9 0 10 -7 3 -25 -16 -42 9 -59 30 -19 l11 22 -6 -22 c-3 -14 -1
-23 6 -23 8 0 8 -6 -1 -21 -9 -17 -8 -20 3 -16 7 2 20 -1 28 -9 23 -20 98 -42
108 -32 5 5 16 0 27 -12 11 -12 31 -20 48 -20 29 0 30 1 11 14 -27 20 -9 32
29 19 43 -15 109 -15 100 1 -4 6 1 4 11 -3 16 -13 17 -13 14 4 -1 11 2 20 7
20 6 0 15 3 21 7 6 4 20 -9 33 -33 23 -41 40 -43 42 -6 1 17 2 18 6 4 2 -9 9
-15 14 -12 5 4 9 1 9 -6 0 -9 3 -9 14 0 11 9 15 3 22 -31 l8 -43 5 50 c4 36 8
45 14 31 6 -14 10 -16 22 -6 7 6 16 21 18 33 3 13 5 7 6 -14 2 -51 31 -63 31
-13 0 21 4 33 10 29 6 -3 10 -18 10 -33 0 -15 5 -34 10 -42 8 -12 10 -8 11 15
l2 30 6 -33 c3 -18 11 -33 16 -34 6 -1 16 -8 23 -17 11 -14 12 -8 7 37 -7 68
12 70 21 2 l7 -50 38 35 c43 39 64 45 56 16 -2 -10 -1 -25 4 -32 5 -8 9 -9 9
-3 0 6 7 11 15 11 8 0 15 -4 15 -9 0 -5 9 -4 21 2 11 6 30 13 41 15 11 3 23 6
25 9 7 6 -31 88 -61 132 -14 20 -22 42 -19 47 4 6 1 7 -6 3 -8 -6 -11 -2 -9
10 2 11 -3 19 -11 19 -8 0 -16 6 -19 14 -3 9 0 11 9 5 11 -6 11 -4 -1 12 -22
30 -24 30 -16 9 7 -19 6 -19 -16 1 -32 29 -47 36 -44 22 6 -27 18 -48 26 -43
9 6 50 -44 70 -85 7 -16 -2 -10 -29 20 l-41 45 21 -48 c33 -76 16 -65 -24 15
l-36 73 -2 -45 c-1 -42 -2 -41 -10 20 -6 48 -14 68 -30 81 -17 13 -20 22 -15
44 7 26 8 27 21 9 14 -18 14 -18 10 4 -6 32 5 54 22 47 10 -3 13 -1 10 8 -3 7
1 21 9 32 8 10 14 24 14 29 0 6 -4 5 -9 -3 -8 -13 -12 -13 -27 0 -16 12 -17
12 -9 -1 8 -13 7 -13 -9 -1 -9 8 -15 23 -13 32 7 27 -21 32 -34 6 -6 -12 -23
-32 -37 -44 -14 -13 -22 -23 -19 -23 4 0 -1 -9 -10 -20 -18 -21 -53 -27 -53
-9 0 6 9 8 20 4 23 -7 25 -2 9 26 -7 14 -16 18 -27 14 -39 -15 -52 -14 -52 6
0 10 -4 19 -10 19 -5 0 -10 10 -10 23 1 46 -5 70 -19 75 -9 3 -11 0 -5 -9 7
-12 5 -12 -9 0 -20 16 -23 41 -4 41 7 0 3 7 -7 15 -15 11 -17 18 -9 26 9 9 8
15 -2 25 -7 8 -18 14 -23 14 -5 0 -17 9 -28 21 -43 47 -100 58 -172 34z m453
-354 c-8 -14 -25 -14 -25 0 0 5 5 7 10 4 6 -3 10 -1 10 6 0 7 3 10 6 6 3 -3 3
-10 -1 -16z m-137 -34 c24 -15 12 -25 -30 -23 -45 2 -64 22 -26 28 30 5 40 4
56 -5z m126 -28 c4 -23 4 -44 1 -47 -8 -9 -12 1 -18 46 -7 54 8 55 17 1z
m-215 -10 c-7 -4 -17 -5 -21 -3 -4 3 -8 0 -8 -6 0 -7 -9 -9 -22 -6 -13 3 -8
-1 11 -10 26 -12 36 -12 41 -3 5 8 10 5 14 -8 5 -15 13 -19 31 -15 22 4 24 7
13 20 -11 13 -10 15 5 9 10 -4 25 -7 33 -7 20 0 65 -50 58 -62 -4 -6 -10 -5
-15 3 -7 11 -9 10 -9 -4 0 -10 -4 -16 -9 -12 -17 10 -71 13 -77 4 -3 -5 -13
-5 -22 -1 -9 5 -24 8 -32 7 -21 -1 -101 33 -122 52 -30 27 -23 51 15 52 17 0
50 7 72 15 35 13 41 12 49 -1 5 -10 4 -18 -5 -24z m161 -19 c0 -10 -5 -22 -10
-25 -13 -8 -24 20 -16 41 8 20 26 9 26 -16z m106 -59 c3 -20 9 -45 13 -56 5
-11 5 -29 0 -40 -7 -17 -8 -16 -8 8 -1 15 -9 44 -20 65 -10 20 -19 50 -19 66
0 28 1 28 14 11 8 -10 16 -35 20 -54z m-71 -10 c2 -19 0 -29 -5 -26 -6 4 -10
20 -10 37 0 39 10 31 15 -11z m-634 -24 c-10 -9 -11 -8 -5 6 3 10 9 15 12 12
3 -3 0 -11 -7 -18z m96 -69 c-2 -18 -4 -4 -4 32 0 36 2 50 4 33 2 -18 2 -48 0
-65z m663 -19 c0 11 4 9 15 -5 8 -10 14 -23 14 -29 0 -5 -4 -2 -10 7 -5 10
-16 15 -24 12 -8 -4 -15 -2 -15 4 0 6 -3 19 -6 29 -3 10 2 7 10 -7 9 -14 15
-19 16 -11z m-130 -9 c0 -5 -4 -10 -10 -10 -5 0 -10 5 -10 10 0 6 5 10 10 10
6 0 10 -4 10 -10z m77 -42 c-3 -8 -6 -5 -6 6 -1 11 2 17 5 13 3 -3 4 -12 1
-19z m173 -44 c0 -4 -7 1 -15 12 -11 14 -14 15 -15 4 0 -9 -6 -5 -14 10 -7 14
-11 28 -9 33 5 8 53 -46 53 -59z m34 25 c15 -22 25 -43 22 -47 -3 -3 -6 1 -6
9 0 10 -2 11 -8 2 -5 -7 -13 5 -24 33 -8 24 -14 44 -13 44 1 0 15 -18 29 -41z"/>
<path d="M1078 1949 c-6 -17 10 -34 40 -43 12 -4 20 -12 17 -17 -4 -5 -2 -9 3
-9 12 0 21 45 12 59 -10 18 -67 25 -72 10z"/>
<path d="M1430 1936 c0 -2 8 -10 18 -17 15 -13 16 -12 3 4 -13 16 -21 21 -21
13z"/>
<path d="M4194 1920 c1 -22 34 -32 56 -17 29 18 25 24 -18 29 -30 2 -39 0 -38
-12z"/>
<path d="M1220 1909 c0 -11 4 -18 10 -14 5 3 7 12 3 20 -7 21 -13 19 -13 -6z"/>
<path d="M4975 1900 c-8 -13 5 -13 25 0 13 8 13 10 -2 10 -9 0 -20 -4 -23 -10z"/>
<path d="M3665 1889 c-4 -6 -4 -13 -1 -16 3 -4 6 -1 6 6 0 7 5 9 12 5 7 -4 8
-3 4 4 -9 15 -13 15 -21 1z"/>
<path d="M1329 1866 c14 -14 29 -26 34 -26 13 0 -12 29 -37 42 -19 10 -18 8 3
-16z"/>
<path d="M1160 1871 c0 -6 0 -14 -1 -18 0 -4 9 -10 20 -15 19 -7 20 -5 11 12
-12 23 -30 35 -30 21z"/>
<path d="M4927 1859 c7 -7 15 -10 18 -7 3 3 -2 9 -12 12 -14 6 -15 5 -6 -5z"/>
<path d="M5020 1856 c0 -9 30 -14 35 -6 4 6 -3 10 -14 10 -12 0 -21 -2 -21 -4z"/>
<path d="M121 1824 c0 -11 3 -14 6 -6 3 7 2 16 -1 19 -3 4 -6 -2 -5 -13z"/>
<path d="M2185 1820 c-22 -10 -43 -16 -47 -14 -18 11 -5 -5 38 -46 25 -25 42
-37 38 -26 -6 16 -5 17 15 6 13 -6 25 -9 28 -7 7 8 -29 67 -41 67 -5 0 -1 9 9
20 22 25 12 25 -40 0z"/>
<path d="M4147 1824 c2 -6 18 -11 34 -12 25 -1 28 2 19 13 -14 17 -60 16 -53
-1z"/>
<path d="M4772 1828 c5 -13 49 -40 56 -33 2 1 -3 12 -10 24 -14 22 -52 30 -46
9z"/>
<path d="M603 1806 c6 -14 4 -17 -10 -12 -37 14 4 -13 71 -48 45 -24 72 -33
76 -26 5 7 11 6 19 -4 6 -8 24 -17 39 -21 51 -12 142 -58 136 -67 -4 -6 3 -5
14 1 16 8 24 8 34 -2 7 -8 18 -12 25 -10 15 5 26 -14 13 -22 -6 -4 -22 0 -35
9 -33 21 -38 20 -18 -4 10 -11 22 -20 27 -20 5 0 30 -17 55 -37 44 -35 33 -12
-14 29 -25 21 -16 23 21 3 16 -8 36 -15 45 -15 9 0 29 -10 45 -22 l29 -23 -20
27 c-11 15 -24 28 -28 28 -5 0 -6 4 -2 10 10 16 -65 57 -155 85 -46 14 -90 31
-97 37 -7 6 -33 14 -58 19 -25 5 -69 20 -98 34 -30 14 -58 25 -64 25 -5 0 -20
10 -33 22 -20 19 -23 19 -17 4z m442 -184 c11 -9 27 -26 35 -36 14 -18 14 -19
-7 -7 -13 6 -23 16 -23 21 0 5 -12 16 -27 24 -16 8 -21 15 -13 15 8 0 24 -7
35 -17z"/>
<path d="M2264 1799 c-14 -15 -15 -20 -4 -17 8 2 16 -4 16 -12 1 -8 2 -19 3
-24 0 -5 7 -3 15 3 11 10 16 8 20 -6 3 -10 14 -23 25 -30 18 -11 19 -10 10 19
-10 38 -24 53 -47 53 -10 0 -16 7 -16 18 2 22 1 21 -22 -4z"/>
<path d="M450 1800 c0 -5 7 -10 15 -10 8 0 15 5 15 10 0 6 -7 10 -15 10 -8 0
-15 -4 -15 -10z"/>
<path d="M520 1785 c14 -7 27 -11 30 -9 6 7 -22 24 -40 23 -9 0 -5 -6 10 -14z"/>
<path d="M777 1789 c7 -7 15 -10 18 -7 3 3 -2 9 -12 12 -14 6 -15 5 -6 -5z"/>
<path d="M4167 1793 c-20 -5 -13 -23 9 -23 8 0 13 4 10 9 -4 5 0 12 6 14 16 7
0 6 -25 0z"/>
<path d="M5123 1785 c-8 -9 -9 -16 -3 -20 6 -4 7 -12 3 -18 -13 -21 -12 -37 3
-37 9 0 12 5 9 11 -4 6 2 9 17 8 12 -1 32 -1 43 -1 17 2 14 5 -12 22 -18 11
-33 27 -33 35 0 19 -11 19 -27 0z"/>
<path d="M994 1776 c10 -9 22 -13 27 -11 4 3 11 0 15 -6 5 -8 3 -9 -6 -4 -10
6 -12 4 -7 -9 6 -15 4 -17 -10 -11 -62 26 -126 45 -148 45 -47 0 -26 -17 42
-34 36 -9 74 -22 82 -29 18 -15 84 -36 134 -42 18 -2 52 -11 76 -20 24 -8 58
-15 77 -15 18 0 35 -4 39 -9 3 -5 19 -12 35 -16 17 -4 28 -11 25 -15 -3 -5 7
-16 22 -24 15 -8 24 -15 18 -16 -21 0 -91 23 -105 35 -8 7 -26 16 -40 20 -38
11 60 -50 103 -64 21 -7 35 -16 32 -21 -2 -4 17 -6 43 -3 37 3 43 2 29 -7 -9
-6 -27 -8 -38 -5 -15 5 -19 4 -15 -4 9 -14 4 -14 -31 0 -34 13 -65 20 -116 24
-21 2 -47 11 -58 21 -10 9 -19 12 -19 6 0 -14 67 -55 83 -49 12 5 100 -38 125
-60 19 -18 21 -16 16 12 -3 16 1 27 9 31 17 6 99 -35 92 -46 -6 -10 -55 0 -55
11 0 4 -10 14 -22 20 -20 11 -21 10 -11 -3 7 -8 10 -18 6 -21 -3 -4 0 -7 9 -7
8 0 35 -16 61 -36 25 -20 50 -33 55 -30 5 3 18 -2 28 -10 10 -9 12 -12 4 -8
-12 6 -13 4 -3 -6 18 -20 26 -6 18 30 -4 18 -15 34 -24 37 -10 2 -23 23 -30
49 -12 41 -20 48 -47 45 -11 -1 -45 30 -79 74 -16 20 -16 20 -6 -2 26 -52 7
-31 -34 40 -25 42 -48 77 -51 77 -3 0 -2 -5 2 -11 4 -7 1 -10 -6 -7 -7 2 -14
12 -16 22 -3 21 -14 35 -14 17 0 -13 -14 -4 -55 37 -14 14 -29 20 -40 16 -14
-6 -13 -10 12 -30 15 -13 35 -23 44 -24 18 0 49 -31 49 -48 0 -23 -18 -20 -47
8 -16 16 -41 34 -55 39 -23 9 -25 8 -20 -12 5 -20 4 -21 -11 -8 -15 12 -17 12
-11 -4 5 -12 4 -16 -4 -11 -6 3 -14 1 -18 -5 -10 -16 -25 11 -18 34 6 19 -11
24 -20 5 -3 -7 -5 -4 -5 7 3 50 0 55 -33 55 -18 0 -40 -4 -47 -9 -9 -6 -23 -6
-35 0 -20 10 -20 10 -2 -5z m230 -72 c3 -8 2 -12 -4 -9 -6 3 -10 10 -10 16 0
14 7 11 14 -7z m181 -214 c3 -6 -1 -7 -9 -4 -18 7 -21 14 -7 14 6 0 13 -4 16
-10z"/>
<path d="M222 1760 c0 -14 2 -19 5 -12 2 6 2 18 0 25 -3 6 -5 1 -5 -13z"/>
<path d="M1130 1766 c0 -7 9 -16 21 -19 20 -5 20 -5 3 14 -20 23 -24 23 -24 5z"/>
<path d="M4877 1766 c-6 -16 1 -26 17 -26 6 0 4 5 -4 11 -11 8 -8 9 15 4 32
-7 32 -4 -2 13 -16 9 -22 9 -26 -2z"/>
<path d="M75 1725 c4 -11 7 -28 7 -37 0 -10 3 -20 9 -23 15 -10 9 39 -8 60
l-16 20 8 -20z"/>
<path d="M344 1706 c2 -19 12 -46 21 -60 20 -30 30 -35 15 -7 -5 11 -10 31
-10 45 0 31 -9 56 -21 56 -5 0 -7 -15 -5 -34z"/>
<path d="M2360 1734 c0 -5 7 -18 15 -28 12 -16 15 -17 15 -4 0 8 -7 21 -15 28
-8 7 -15 9 -15 4z"/>
<path d="M3666 1721 c-8 -12 18 -73 27 -64 4 3 7 -2 7 -13 1 -18 1 -18 14 -1
7 9 19 17 27 17 10 1 9 4 -3 11 -10 5 -18 15 -18 21 0 11 -29 37 -42 38 -4 0
-9 -4 -12 -9z"/>
<path d="M121 1704 c0 -11 3 -14 6 -6 3 7 2 16 -1 19 -3 4 -6 -2 -5 -13z"/>
<path d="M210 1700 c0 -11 2 -20 4 -20 2 0 6 9 9 20 3 11 1 20 -4 20 -5 0 -9
-9 -9 -20z"/>
<path d="M4854 1703 c2 -12 13 -19 32 -21 21 -2 25 0 15 7 -8 5 -21 7 -29 3
-10 -3 -13 -1 -8 6 3 6 2 13 -3 16 -5 4 -8 -2 -7 -11z"/>
<path d="M660 1696 c0 -2 8 -10 18 -17 15 -13 16 -12 3 4 -13 16 -21 21 -21
13z"/>
<path d="M3290 1668 c0 -4 4 -8 9 -8 6 0 12 4 15 8 3 5 -1 9 -9 9 -8 0 -15 -4
-15 -9z"/>
<path d="M4850 1662 c0 -5 9 -12 21 -15 13 -3 19 -1 16 6 -5 15 -37 22 -37 9z"/>
<path d="M475 1650 c-3 -5 -1 -18 4 -27 9 -16 10 -14 11 10 0 28 -5 34 -15 17z"/>
<path d="M4905 1650 c-4 -6 -2 -10 3 -10 5 0 18 -12 27 -26 17 -27 17 -27 -6
-21 -23 6 -23 6 -4 -9 11 -8 25 -12 33 -9 7 2 10 0 7 -5 -3 -6 2 -11 12 -11
10 -1 28 -3 41 -4 12 -1 25 1 27 6 3 4 22 5 43 3 l37 -5 -44 20 c-24 12 -51
21 -61 21 -10 0 -31 10 -47 23 -35 29 -61 39 -68 27z m100 -78 c-3 -3 -11 0
-18 7 -9 10 -8 11 6 5 10 -3 15 -9 12 -12z"/>
<path d="M3345 1640 c-4 -6 -1 -17 5 -26 11 -12 14 -12 25 3 7 10 11 21 9 25
-7 11 -32 10 -39 -2z"/>
<path d="M4793 1637 c0 -8 6 -14 14 -14 9 0 10 4 2 14 -6 7 -12 13 -14 13 -1
0 -2 -6 -2 -13z"/>
<path d="M5054 1635 c11 -8 25 -15 30 -15 6 0 2 7 -8 15 -11 8 -25 15 -30 15
-6 0 -2 -7 8 -15z"/>
<path d="M110 1618 c0 -13 4 -29 9 -36 6 -10 10 -8 14 8 6 25 -1 50 -14 50 -5
0 -9 -10 -9 -22z"/>
<path d="M305 1631 c-3 -5 -1 -12 5 -16 5 -3 10 1 10 9 0 18 -6 21 -15 7z"/>
<path d="M1193 1623 c9 -2 15 -9 12 -14 -3 -5 2 -6 11 -2 11 4 15 3 10 -5 -7
-11 31 -38 41 -29 2 3 -5 8 -16 12 -12 3 -19 10 -16 15 6 10 -27 31 -47 29 -7
-1 -5 -3 5 -6z"/>
<path d="M1491 1604 c0 -11 3 -14 6 -6 3 7 2 16 -1 19 -3 4 -6 -2 -5 -13z"/>
<path d="M3466 1591 c-16 -16 -26 -35 -24 -42 2 -7 16 2 33 24 34 46 29 57 -9
18z"/>
<path d="M3832 1606 c7 -8 17 -12 22 -9 4 3 2 9 -5 14 -22 13 -31 11 -17 -5z"/>
<path d="M4778 1601 c13 -11 22 -23 22 -26 -2 -11 47 -45 64 -45 9 0 16 -4 16
-8 0 -5 7 -9 15 -9 23 0 10 11 -44 37 -28 12 -48 26 -46 30 3 4 -8 15 -23 24
l-27 17 23 -20z"/>
<path d="M3405 1600 c-3 -5 -3 -15 1 -21 6 -11 23 6 24 24 0 10 -18 9 -25 -3z"/>
<path d="M3497 1582 c-23 -24 -44 -72 -32 -72 7 0 67 91 63 96 -3 2 -17 -9
-31 -24z"/>
<path d="M4471 1594 c17 -21 63 -44 88 -44 10 0 21 -4 23 -8 6 -15 141 -82
151 -75 6 3 7 2 4 -4 -4 -6 5 -15 19 -22 l26 -11 -22 29 c-26 37 -74 73 -85
63 -5 -4 -5 -1 -1 6 4 7 1 15 -8 18 -9 3 -13 11 -10 16 4 6 -3 5 -15 -1 -22
-12 -87 -5 -96 10 -3 4 -11 6 -18 3 -7 -2 -24 4 -37 16 -28 24 -38 26 -19 4z"/>
<path d="M4660 1595 c7 -8 36 -32 64 -52 28 -20 77 -59 109 -86 64 -55 75 -50
21 9 -19 21 -33 33 -29 27 3 -7 2 -13 -3 -13 -11 0 -38 30 -34 39 1 3 -1 7 -5
7 -5 1 -18 5 -31 9 -21 7 -21 8 -5 21 17 13 17 14 -1 7 -13 -4 -17 -3 -12 5 3
6 -3 16 -15 22 -17 10 -20 9 -13 -2 6 -10 5 -11 -8 -1 -8 7 -18 10 -21 6 -4
-3 -7 -1 -7 5 0 7 -5 12 -11 12 -8 0 -8 -5 1 -15z"/>
<path d="M191 1584 c0 -11 3 -14 6 -6 3 7 2 16 -1 19 -3 4 -6 -2 -5 -13z"/>
<path d="M399 1582 c5 -9 26 -33 46 -52 l37 -35 -31 46 c-30 46 -73 79 -52 41z"/>
<path d="M2618 1573 c7 -3 16 -2 19 1 4 3 -2 6 -13 5 -11 0 -14 -3 -6 -6z"/>
<path d="M4605 1570 c3 -5 11 -10 16 -10 6 0 7 5 4 10 -3 6 -11 10 -16 10 -6
0 -7 -4 -4 -10z"/>
<path d="M283 1558 c-9 -11 -8 -16 8 -26 20 -13 22 -9 10 21 -6 16 -9 17 -18
5z"/>
<path d="M5230 1566 c0 -2 7 -9 15 -16 13 -11 14 -10 9 4 -5 14 -24 23 -24 12z"/>
<path d="M130 1553 c0 -5 5 -15 10 -23 8 -12 10 -11 10 8 0 12 -4 22 -10 22
-5 0 -10 -3 -10 -7z"/>
<path d="M192 1540 c0 -14 2 -19 5 -12 2 6 2 18 0 25 -3 6 -5 1 -5 -13z"/>
<path d="M4524 1502 c35 -59 83 -158 109 -227 9 -22 16 -32 16 -22 1 11 9 17
25 17 14 0 28 4 31 10 3 5 16 9 28 9 30 -1 200 21 205 26 3 3 -4 8 -14 11 -10
4 -31 16 -46 26 -32 22 -45 23 -28 3 7 -8 8 -15 4 -15 -5 0 -15 9 -22 20 -7
11 -20 20 -30 20 -14 0 -14 2 -3 9 11 7 2 15 -35 34 -27 14 -98 50 -158 81
-59 31 -110 56 -112 56 -2 0 12 -26 30 -58z m193 -196 c8 -8 -7 -8 -46 0 -17
4 -31 10 -31 14 0 8 67 -4 77 -14z"/>
<path d="M4966 1510 c1 -32 -2 -40 -15 -40 -9 0 -22 5 -29 12 -9 9 -12 8 -12
-4 0 -9 6 -19 13 -22 6 -3 -1 -4 -16 -1 l-29 6 21 -30 c12 -17 27 -34 34 -38
7 -4 5 1 -3 11 -14 17 -12 18 33 14 46 -5 47 -5 30 14 -17 19 -17 20 18 13 23
-4 39 -3 43 4 4 6 1 11 -6 11 -9 0 -9 3 2 10 13 8 12 10 -3 10 -10 0 -15 5
-12 10 3 6 16 10 28 10 16 0 18 3 9 9 -7 4 -24 6 -37 3 -16 -3 -27 2 -34 17
-19 35 -37 26 -35 -19z"/>
<path d="M340 1528 c0 -9 7 -19 16 -22 25 -10 27 -1 4 19 -17 15 -20 16 -20 3z"/>
<path d="M1176 1458 c99 -95 182 -154 195 -141 13 13 -57 67 -73 57 -7 -4 -8
-3 -4 5 4 6 -1 14 -13 19 -11 4 -43 29 -71 56 -28 27 -67 57 -85 67 -24 13 -9
-6 51 -63z"/>
<path d="M1201 1527 c2 -1 13 -9 24 -17 19 -14 19 -14 6 3 -7 9 -18 17 -24 17
-6 0 -8 -1 -6 -3z"/>
<path d="M1195 1500 c10 -11 20 -20 23 -20 3 0 -3 9 -13 20 -10 11 -20 20 -23
20 -3 0 3 -9 13 -20z"/>
<path d="M4764 1475 c20 -27 36 -51 36 -54 0 -4 21 -18 46 -31 34 -18 48 -22
51 -12 3 6 10 9 16 5 7 -4 6 1 -2 10 -7 9 -16 15 -20 13 -4 -3 -42 23 -85 56
l-78 60 36 -47z"/>
<path d="M203 1491 c-7 -10 -8 -24 -3 -32 5 -7 6 -30 4 -51 -5 -31 -3 -37 9
-32 16 6 29 51 17 59 -4 2 -5 17 -2 33 5 35 -9 48 -25 23z"/>
<path d="M2160 1490 c0 -5 5 -10 10 -10 6 0 10 5 10 10 0 6 -4 10 -10 10 -5 0
-10 -4 -10 -10z"/>
<path d="M435 1479 c4 -6 10 -8 13 -5 3 3 11 1 19 -6 11 -8 12 -7 7 6 -3 9
-15 16 -26 16 -11 0 -16 -5 -13 -11z"/>
<path d="M60 1471 c0 -5 6 -16 14 -23 7 -8 16 -23 20 -35 4 -12 14 -27 23 -35
15 -11 16 -11 10 5 -4 10 -7 23 -7 27 0 5 -13 23 -30 40 -16 17 -30 26 -30 21z"/>
<path d="M1290 1469 c37 -25 50 -30 50 -19 0 5 -7 10 -16 10 -8 0 -13 4 -10 8
2 4 -5 9 -17 9 -18 2 -19 0 -7 -8z"/>
<path d="M2359 1462 c13 -24 2 -29 -17 -10 -6 6 -14 10 -16 7 -9 -9 11 -30 32
-34 12 -2 26 -6 31 -9 4 -3 17 4 27 15 16 17 16 22 4 29 -8 6 -20 10 -27 10
-6 0 -19 3 -28 7 -15 5 -16 3 -6 -15z"/>
<path d="M530 1456 c0 -9 5 -16 10 -16 6 0 10 4 10 9 0 6 -4 13 -10 16 -5 3
-10 -1 -10 -9z"/>
<path d="M137 1427 c23 -47 33 -47 33 1 0 26 -3 33 -9 23 -8 -13 -12 -13 -26
-1 -14 12 -14 9 2 -23z"/>
<path d="M630 1442 c0 -24 16 -38 22 -20 3 8 10 3 18 -12 7 -14 24 -36 38 -50
14 -14 22 -19 18 -12 -4 7 -10 24 -12 39 -7 35 -13 45 -27 40 -7 -3 -22 5 -34
16 l-23 20 0 -21z"/>
<path d="M490 1446 c0 -1 14 -15 30 -31 19 -19 30 -24 30 -14 0 8 -14 22 -30
31 -17 9 -30 16 -30 14z"/>
<path d="M1026 1437 c3 -10 9 -15 12 -12 3 3 0 11 -7 18 -10 9 -11 8 -5 -6z"/>
<path d="M2437 1443 c-4 -3 -7 -15 -7 -27 0 -20 0 -20 15 0 8 10 15 22 15 27
0 9 -14 9 -23 0z"/>
<path d="M818 1419 c-2 -7 4 -23 14 -34 16 -16 16 -20 4 -25 -10 -3 -12 -10
-7 -19 7 -11 11 -10 18 5 7 13 5 29 -7 53 -11 22 -19 29 -22 20z"/>
<path d="M1060 1411 c0 -12 5 -21 10 -21 6 0 10 6 10 14 0 8 -4 18 -10 21 -5
3 -10 -3 -10 -14z"/>
<path d="M3587 1423 c-4 -3 -7 -11 -7 -17 0 -6 5 -5 12 2 6 6 9 14 7 17 -3 3
-9 2 -12 -2z"/>
<path d="M994 1403 c3 -8 6 -17 6 -20 0 -3 7 0 15 7 23 19 18 -4 -5 -25 -19
-18 -20 -17 -20 3 0 11 -4 24 -10 27 -14 9 -13 -81 2 -108 l12 -22 7 25 c6 22
7 23 8 4 1 -12 7 -24 15 -27 8 -3 16 -16 19 -29 2 -13 2 15 0 62 -6 104 -6
106 -33 113 -16 4 -20 2 -16 -10z"/>
<path d="M2460 1409 c0 -5 5 -7 10 -4 6 3 10 8 10 11 0 2 -4 4 -10 4 -5 0 -10
-5 -10 -11z"/>
<path d="M416 1385 c4 -8 12 -15 20 -15 24 0 15 -20 -8 -21 -21 -1 -21 -2 -3
-6 11 -3 25 -10 32 -15 17 -14 103 -22 103 -10 0 5 -11 17 -25 26 -19 12 -30
14 -51 6 -15 -6 -29 -8 -32 -5 -3 3 0 5 7 5 7 0 10 4 7 9 -4 5 3 7 14 4 30 -8
24 4 -12 21 -39 20 -59 20 -52 1z"/>
<path d="M1161 1389 c-1 -8 10 -26 25 -40 18 -17 23 -19 18 -6 -3 9 -9 17 -14
17 -4 0 -12 10 -18 23 -7 15 -11 17 -11 6z"/>
<path d="M1386 1392 c-3 -6 1 -12 9 -16 21 -8 19 -26 -2 -26 -17 -1 -17 -1 0
-11 9 -5 22 -7 27 -4 6 3 7 -1 4 -9 -4 -10 -1 -16 9 -16 8 0 18 -7 21 -16 4
-9 9 -14 13 -11 3 4 -6 22 -21 41 -14 19 -26 39 -26 44 0 15 -27 34 -34 24z"/>
<path d="M1440 1386 c0 -8 113 -83 138 -90 39 -13 81 -54 75 -76 -3 -11 0 -20
6 -20 6 0 11 -5 11 -11 0 -5 -4 -7 -10 -4 -25 15 3 -36 43 -81 18 -20 25 -34
18 -38 -6 -4 -11 -1 -11 6 0 8 -12 14 -27 15 l-28 2 35 -30 c19 -17 43 -35 53
-40 16 -9 17 -8 9 8 -5 10 -12 32 -15 50 -4 18 -18 50 -32 73 -14 22 -25 43
-25 47 0 5 5 1 10 -7 7 -11 8 -5 4 20 -12 69 -25 96 -54 113 -24 15 -29 15
-24 3 4 -11 0 -13 -18 -9 -13 3 -29 10 -35 16 -7 5 -13 6 -13 2 0 -4 -7 -2
-15 5 -8 7 -15 9 -15 6 0 -4 -12 1 -27 12 -39 27 -53 34 -53 28z"/>
<path d="M555 1370 c3 -5 11 -10 16 -10 6 0 7 5 4 10 -3 6 -11 10 -16 10 -6 0
-7 -4 -4 -10z"/>
<path d="M1080 1352 c0 -17 5 -34 10 -37 6 -4 8 -16 4 -28 -6 -19 -5 -20 8 -9
13 10 14 19 4 52 -15 51 -26 61 -26 22z"/>
<path d="M5247 1359 c7 -7 15 -10 18 -7 3 3 -2 9 -12 12 -14 6 -15 5 -6 -5z"/>
<path d="M5033 1343 c9 -2 23 -2 30 0 6 3 -1 5 -18 5 -16 0 -22 -2 -12 -5z"/>
<path d="M614 1329 c-4 -7 -3 -9 4 -5 6 3 13 -2 15 -11 4 -16 5 -16 6 -1 1 21
-15 32 -25 17z"/>
<path d="M881 1313 c-10 -26 -10 -27 4 -9 8 11 15 23 15 28 0 15 -7 8 -19 -19z"/>
<path d="M5173 1320 c-39 -6 -31 -24 12 -27 20 -2 25 1 16 6 -11 7 -11 9 0 13
24 9 5 14 -28 8z"/>
<path d="M655 1310 c-7 -12 10 -37 35 -50 12 -6 16 -4 17 8 1 21 -43 56 -52
42z"/>
<path d="M1251 1280 c24 -22 50 -39 58 -40 18 0 -67 73 -87 77 -9 1 4 -16 29
-37z"/>
<path d="M760 1300 c0 -5 -7 -6 -17 -3 -12 5 -14 3 -7 -8 4 -8 9 -20 11 -28 1
-7 6 -18 12 -24 8 -8 11 1 11 31 0 23 -2 42 -5 42 -3 0 -5 -4 -5 -10z"/>
<path d="M4957 1299 c7 -7 15 -10 18 -7 3 3 -2 9 -12 12 -14 6 -15 5 -6 -5z"/>
<path d="M217 1284 c-4 -4 -7 -15 -7 -25 0 -9 -6 -19 -12 -22 -7 -2 -10 -8 -6
-11 8 -10 41 40 36 54 -2 6 -7 8 -11 4z"/>
<path d="M1970 1284 c0 -13 48 -59 55 -52 3 2 -9 17 -25 33 -17 16 -30 24 -30
19z"/>
<path d="M399 1278 c-7 -22 -2 -58 8 -58 15 0 17 26 3 35 -6 4 -8 11 -5 16 4
5 4 9 1 9 -3 0 -6 -1 -7 -2z"/>
<path d="M1117 1273 c-4 -3 -7 -13 -7 -22 1 -13 3 -13 11 2 11 19 8 33 -4 20z"/>
<path d="M1340 1260 c6 -11 16 -20 22 -20 6 0 3 9 -7 20 -10 11 -20 20 -22 20
-2 0 1 -9 7 -20z"/>
<path d="M1503 1267 c0 -8 6 -14 14 -14 9 0 10 4 2 14 -6 7 -12 13 -14 13 -1
0 -2 -6 -2 -13z"/>
<path d="M122 1243 c2 -18 1 -33 -4 -33 -11 0 -7 -62 5 -78 8 -10 18 -5 44 24
34 39 43 55 19 35 -12 -10 -16 -8 -22 11 -4 13 -16 34 -27 48 l-20 25 5 -32z"/>
<path d="M4590 1261 c0 -21 13 -41 26 -41 8 0 14 -5 14 -12 0 -6 2 -9 5 -6 10
9 -17 68 -31 68 -8 0 -14 -4 -14 -9z"/>
<path d="M466 1247 c3 -10 9 -15 12 -12 3 3 0 11 -7 18 -10 9 -11 8 -5 -6z"/>
<path d="M870 1245 c0 -11 5 -27 10 -35 8 -12 10 -12 10 5 0 11 -5 27 -10 35
-8 12 -10 12 -10 -5z"/>
<path d="M4565 1250 c-3 -5 -1 -10 4 -10 6 0 11 5 11 10 0 6 -2 10 -4 10 -3 0
-8 -4 -11 -10z"/>
<path d="M431 1229 c1 -13 4 -37 8 -54 l7 -30 12 23 c14 25 9 54 -13 72 -13
10 -15 8 -14 -11z"/>
<path d="M4731 1246 c9 -10 89 -15 84 -5 -4 5 -25 9 -47 9 -23 0 -39 -2 -37
-4z"/>
<path d="M367 1220 c-3 -11 -1 -20 4 -20 5 0 9 9 9 20 0 11 -2 20 -4 20 -2 0
-6 -9 -9 -20z"/>
<path d="M726 1223 c-6 -14 -5 -15 5 -6 7 7 10 15 7 18 -3 3 -9 -2 -12 -12z"/>
<path d="M1746 1218 c9 -29 20 -45 67 -97 21 -24 41 -40 44 -38 8 9 -8 66 -21
74 -7 5 -18 17 -24 28 l-11 20 -1 -20 c-1 -15 -6 -10 -21 18 -21 41 -45 51
-33 15z"/>
<path d="M2040 1231 c0 -5 5 -13 10 -16 6 -3 10 -2 10 4 0 5 -4 13 -10 16 -5
3 -10 2 -10 -4z"/>
<path d="M4890 1220 c8 -5 20 -10 25 -10 6 0 3 5 -5 10 -8 5 -19 10 -25 10 -5
0 -3 -5 5 -10z"/>
<path d="M4530 1208 c0 -11 12 -10 30 2 12 7 10 9 -8 7 -12 0 -22 -5 -22 -9z"/>
<path d="M4850 1216 c0 -3 9 -10 20 -16 11 -6 20 -8 20 -6 0 3 -9 10 -20 16
-11 6 -20 8 -20 6z"/>
<path d="M220 1185 c-7 -9 -11 -17 -9 -20 3 -2 10 5 17 15 14 24 10 26 -8 5z"/>
<path d="M826 1187 c3 -10 9 -15 12 -12 3 3 0 11 -7 18 -10 9 -11 8 -5 -6z"/>
<path d="M4618 1183 c7 -3 16 -2 19 1 4 3 -2 6 -13 5 -11 0 -14 -3 -6 -6z"/>
<path d="M5194 1171 c7 -11 46 -35 46 -28 0 3 -12 12 -26 22 -15 9 -23 12 -20
6z"/>
<path d="M576 1163 c-3 -4 1 -15 11 -25 13 -14 13 -18 2 -18 -18 -1 19 -30 37
-30 10 0 10 5 1 23 -17 32 -43 58 -51 50z"/>
<path d="M2130 1161 c0 -5 5 -13 10 -16 6 -3 10 -2 10 4 0 5 -4 13 -10 16 -5
3 -10 2 -10 -4z"/>
<path d="M4720 1161 c0 -13 57 -43 75 -39 11 3 12 6 0 21 -15 20 -75 34 -75
18z"/>
<path d="M527 1142 c3 -11 12 -23 20 -27 25 -9 25 0 -1 24 -24 22 -24 22 -19
3z"/>
<path d="M840 1136 c0 -17 -4 -25 -11 -20 -8 5 -8 1 0 -13 12 -23 60 -57 69
-49 6 7 -14 49 -40 85 l-18 24 0 -27z"/>
<path d="M4990 1156 c0 -2 7 -7 16 -10 8 -3 12 -2 9 4 -6 10 -25 14 -25 6z"/>
<path d="M400 1135 c0 -8 6 -15 13 -15 9 0 9 -2 -1 -9 -11 -7 -11 -9 1 -14 15
-6 31 28 21 45 -9 14 -34 9 -34 -7z"/>
<path d="M466 1142 c-3 -6 -1 -14 5 -17 15 -10 25 3 12 16 -7 7 -13 7 -17 1z"/>
<path d="M4865 1143 c11 -3 22 -9 25 -13 7 -10 72 -31 66 -21 -9 14 -72 41
-93 40 -16 -1 -16 -2 2 -6z"/>
<path d="M1495 1130 c9 -15 45 -32 45 -22 0 5 -12 14 -26 20 -14 7 -23 8 -19
2z"/>
<path d="M2590 1136 c0 -2 7 -9 15 -16 9 -7 15 -8 15 -2 0 5 -7 12 -15 16 -8
3 -15 4 -15 2z"/>
<path d="M2150 1120 c0 -5 5 -10 10 -10 6 0 10 5 10 10 0 6 -4 10 -10 10 -5 0
-10 -4 -10 -10z"/>
<path d="M5132 1097 c15 -12 37 -30 50 -40 18 -15 19 -17 4 -12 -16 5 -17 3
-5 -11 12 -15 14 -14 23 5 10 24 -10 44 -69 68 l-30 13 27 -23z"/>
<path d="M540 1101 c0 -10 50 -41 65 -41 10 0 -18 26 -43 39 -13 7 -22 8 -22
2z"/>
<path d="M1560 1100 c0 -12 28 -25 36 -17 3 3 -4 10 -15 17 -15 7 -21 7 -21 0z"/>
<path d="M1370 1061 c0 -23 6 -31 29 -39 39 -14 57 -2 41 28 -6 12 -18 19 -25
16 -7 -2 -16 2 -19 10 -9 25 -26 15 -26 -15z"/>
<path d="M1610 1082 c0 -5 9 -17 20 -27 18 -16 20 -16 20 -2 0 9 -9 21 -20 27
-11 6 -20 7 -20 2z"/>
<path d="M4678 1083 c7 -3 16 -2 19 1 4 3 -2 6 -13 5 -11 0 -14 -3 -6 -6z"/>
<path d="M2003 1066 c4 -11 -1 -13 -23 -11 -40 5 -43 -5 -14 -43 33 -42 60
-57 67 -37 4 10 1 12 -11 9 -14 -5 -14 -4 -3 4 8 6 20 8 28 5 19 -7 16 2 -13
47 -27 40 -41 52 -31 26z"/>
<path d="M1494 1025 c11 -24 25 -45 29 -45 5 0 5 5 2 10 -4 6 5 5 19 -2 31
-13 37 -9 30 19 -7 25 -36 47 -75 56 l-27 7 22 -45z"/>
<path d="M4704 1059 c-3 -5 6 -9 20 -9 31 0 34 6 6 13 -11 3 -23 1 -26 -4z"/>
<path d="M1347 1046 c-6 -15 18 -55 27 -45 4 3 0 18 -8 33 -10 19 -15 23 -19
12z"/>
<path d="M2066 1015 c4 -16 23 -45 43 -62 20 -18 46 -42 58 -54 13 -12 35 -22
51 -23 15 -1 43 -11 62 -23 19 -12 38 -19 42 -17 15 9 8 32 -14 47 -13 9 -18
16 -11 16 7 1 24 -10 39 -24 33 -30 37 -28 22 11 -8 20 -27 37 -63 54 -32 15
-51 20 -48 13 3 -7 1 -13 -5 -13 -6 0 -17 -2 -25 -6 -8 -3 -32 12 -56 35 -24
23 -50 41 -58 41 -9 0 -22 8 -30 18 -12 15 -13 14 -7 -13z"/>
<path d="M4789 1020 c21 -19 41 -26 41 -16 0 12 -33 36 -48 36 -14 -1 -12 -5
7 -20z"/>
<path d="M96 1015 c-3 -8 -1 -15 4 -15 6 0 10 7 10 15 0 8 -2 15 -4 15 -2 0
-6 -7 -10 -15z"/>
<path d="M1646 985 c9 -14 19 -24 21 -21 6 6 -20 46 -30 46 -4 0 0 -11 9 -25z"/>
<path d="M1680 998 c1 -15 24 -48 34 -48 4 0 1 10 -5 23 -11 20 -11 21 4 8 13
-10 17 -10 17 -1 0 7 7 10 18 6 14 -5 14 -4 -2 9 -24 18 -66 20 -66 3z"/>
<path d="M2196 971 c-3 -5 1 -11 9 -15 15 -6 29 7 18 18 -9 9 -21 8 -27 -3z"/>
<path d="M4858 973 c7 -3 16 -2 19 1 4 3 -2 6 -13 5 -11 0 -14 -3 -6 -6z"/>
<path d="M4580 953 c0 -12 5 -25 11 -28 17 -11 18 -2 4 25 -14 24 -14 24 -15
3z"/>
<path d="M4756 958 c3 -5 -7 -6 -23 -3 -23 4 -24 4 -8 -4 11 -5 34 -10 50 -11
25 -1 27 -3 10 -9 l-20 -8 20 -6 c11 -3 43 -9 70 -13 28 -3 58 -11 68 -16 12
-6 17 -5 15 4 -2 8 4 12 15 10 9 -2 17 1 17 6 0 6 -8 19 -17 30 -15 18 -32 22
-110 25 -53 2 -90 0 -87 -5z m181 -24 c-3 -3 -12 -4 -19 -1 -8 3 -5 6 6 6 11
1 17 -2 13 -5z"/>
<path d="M1373 931 c0 -11 5 -18 9 -15 4 3 5 11 1 19 -7 21 -12 19 -10 -4z"/>
<path d="M2577 909 c7 -7 15 -10 18 -7 3 3 -2 9 -12 12 -14 6 -15 5 -6 -5z"/>
<path d="M2370 898 c1 -34 59 -78 105 -78 21 0 24 3 16 18 -5 9 -24 26 -42 36
-21 13 -29 14 -24 5 6 -10 3 -9 -11 2 -31 26 -44 31 -44 17z"/>
<path d="M4475 900 c3 -5 11 -10 16 -10 6 0 7 5 4 10 -3 6 -11 10 -16 10 -6 0
-7 -4 -4 -10z"/>
<path d="M2610 875 c7 -8 20 -15 29 -15 13 1 13 3 -3 15 -26 19 -42 19 -26 0z"/>
<path d="M4570 875 c0 -11 5 -27 10 -35 8 -12 10 -12 10 5 0 11 -5 27 -10 35
-8 12 -10 12 -10 -5z"/>
<path d="M4860 886 c0 -2 9 -6 20 -9 11 -3 20 -1 20 4 0 5 -9 9 -20 9 -11 0
-20 -2 -20 -4z"/>
<path d="M4617 846 c-5 -11 5 -22 33 -36 22 -11 40 -16 40 -11 0 5 -5 11 -11
13 -5 2 -11 12 -13 23 -3 24 -41 32 -49 11z"/>
<path d="M1800 823 c0 -16 5 -35 10 -43 7 -11 10 -4 10 28 0 23 -4 42 -10 42
-5 0 -10 -12 -10 -27z"/>
<path d="M1940 846 c0 -2 7 -7 16 -10 8 -3 12 -2 9 4 -6 10 -25 14 -25 6z"/>
<path d="M4850 820 c29 -23 41 -25 38 -7 -3 13 -25 25 -48 26 -10 0 -6 -6 10
-19z"/>
<path d="M4520 780 c0 -6 7 -10 15 -10 8 0 15 2 15 4 0 2 -7 6 -15 10 -8 3
-15 1 -15 -4z"/>
<path d="M1033 762 c10 -10 14 -22 10 -27 -5 -4 -2 -5 5 -1 11 6 10 12 -4 27
-9 10 -19 19 -22 19 -3 0 2 -8 11 -18z"/>
<path d="M2630 770 c0 -5 7 -10 16 -10 8 0 12 5 9 10 -3 6 -10 10 -16 10 -5 0
-9 -4 -9 -10z"/>
<path d="M2708 763 c6 -2 12 -11 12 -19 0 -8 5 -14 10 -14 7 0 7 6 0 20 -6 11
-16 20 -23 19 -9 0 -9 -2 1 -6z"/>
<path d="M2020 752 c0 -19 67 -81 92 -86 22 -5 26 -3 22 9 -4 8 -10 15 -15 15
-5 0 -26 16 -48 35 -39 35 -51 42 -51 27z"/>
<path d="M4695 750 c3 -5 8 -10 11 -10 2 0 4 5 4 10 0 6 -5 10 -11 10 -5 0 -7
-4 -4 -10z"/>
<path d="M4230 708 c0 -10 -4 -18 -10 -18 -13 0 -13 -36 0 -61 12 -21 19 -23
37 -11 10 6 8 19 -7 57 -10 28 -19 42 -20 33z"/>
<path d="M1635 650 c3 -5 11 -10 16 -10 6 0 7 5 4 10 -3 6 -11 10 -16 10 -6 0
-7 -4 -4 -10z"/>
<path d="M1132 604 c9 -9 21 -13 28 -9 14 9 -5 25 -30 25 -12 0 -12 -3 2 -16z"/>
<path d="M1670 615 c0 -6 67 -43 91 -50 l24 -7 -25 19 c-23 18 -90 47 -90 38z"/>
<path d="M2990 589 c0 -5 -4 -7 -10 -4 -5 3 -10 2 -10 -3 0 -17 13 -21 26 -7
16 16 18 25 4 25 -5 0 -10 -5 -10 -11z"/>
<path d="M2040 584 c0 -10 34 -44 73 -73 30 -23 18 -6 -28 39 -25 24 -45 40
-45 34z"/>
<path d="M1070 551 c0 -17 18 -21 24 -6 3 9 0 15 -9 15 -8 0 -15 -4 -15 -9z"/>
<path d="M450 545 c0 -2 10 -10 23 -16 20 -11 21 -11 8 4 -13 16 -31 23 -31
12z"/>
<path d="M2896 517 c3 -10 9 -15 12 -12 3 3 0 11 -7 18 -10 9 -11 8 -5 -6z"/>
<path d="M2970 462 c6 -13 14 -21 18 -18 3 4 -2 14 -12 24 -18 16 -18 16 -6
-6z"/>
<path d="M3251 449 c-13 -17 -21 -32 -19 -35 8 -7 48 36 48 51 0 21 -3 19 -29
-16z"/>
<path d="M3385 459 c-4 -6 -5 -12 -2 -15 2 -3 7 2 10 11 7 17 1 20 -8 4z"/>
<path d="M3316 394 c-8 -31 -5 -37 18 -28 10 4 16 15 14 27 -5 31 -25 32 -32
1z"/>
<path d="M848 723 c12 -2 30 -2 40 0 9 3 -1 5 -23 4 -22 0 -30 -2 -17 -4z"/>
<path d="M4967 579 c18 -11 38 -19 45 -16 7 3 -4 12 -24 21 -51 22 -60 20 -21
-5z"/>
<path d="M5113 543 c9 -9 20 -13 24 -9 4 4 1 11 -7 16 -25 16 -35 11 -17 -7z"/>
<path d="M4894 526 c17 -14 47 -26 74 -29 25 -3 51 -12 56 -19 8 -11 23 -13
55 -9 42 6 43 6 23 24 -12 11 -46 21 -97 26 -42 5 -82 14 -88 20 -6 6 -20 11
-31 11 -19 -1 -18 -3 8 -24z"/>
<path d="M4806 268 c8 -19 73 -58 96 -58 12 0 36 -11 54 -25 18 -14 39 -22 47
-19 9 3 27 -2 41 -11 32 -21 34 -5 4 29 -15 16 -59 37 -129 61 -121 40 -120
40 -113 23z"/>
<path d="M4382 233 c-17 -56 -15 -63 11 -63 13 0 28 -5 35 -12 20 -20 15 11
-11 66 l-23 49 -12 -40z"/>
<path d="M5480 200 c0 -5 5 -10 11 -10 5 0 7 5 4 10 -3 6 -8 10 -11 10 -2 0
-4 -4 -4 -10z"/>
<path d="M5630 166 c0 -5 81 -86 86 -86 2 0 0 10 -5 22 -7 18 -81 77 -81 64z"/>
<path d="M4515 150 c-3 -5 -1 -10 4 -10 6 0 11 5 11 10 0 6 -2 10 -4 10 -3 0
-8 -4 -11 -10z"/>
<path d="M4270 118 c-21 -34 -27 -78 -11 -78 5 0 12 12 16 27 3 16 16 35 27
44 12 9 18 21 14 28 -12 19 -25 13 -46 -21z"/>
<path d="M4450 109 c0 -17 4 -28 10 -24 6 3 10 17 10 31 0 13 -4 24 -10 24 -5
0 -10 -14 -10 -31z"/>
<path d="M5285 120 c10 -11 20 -20 23 -20 3 0 -3 9 -13 20 -10 11 -20 20 -23
20 -3 0 3 -9 13 -20z"/>
<path d="M4577 100 c8 -29 25 -37 21 -9 -1 12 -8 24 -15 26 -7 3 -9 -3 -6 -17z"/>
<path d="M5401 65 c0 -5 6 -19 14 -29 8 -11 15 -15 15 -10 0 6 -7 19 -15 30
-8 10 -14 15 -14 9z"/>
<path d="M5346 35 c4 -8 10 -15 15 -15 4 0 6 7 3 15 -4 8 -10 15 -15 15 -4 0
-6 -7 -3 -15z"/>
</g>
</svg>
